<?xml version="1.0" encoding="UTF-8" standalone="no"?>
<!-- Created with Inkscape (http://www.inkscape.org/) -->

<svg
   xmlns:dc="http://purl.org/dc/elements/1.1/"
   xmlns:cc="http://creativecommons.org/ns#"
   xmlns:rdf="http://www.w3.org/1999/02/22-rdf-syntax-ns#"
   xmlns:svg="http://www.w3.org/2000/svg"
   xmlns="http://www.w3.org/2000/svg"
   xmlns:sodipodi="http://sodipodi.sourceforge.net/DTD/sodipodi-0.dtd"
   xmlns:inkscape="http://www.inkscape.org/namespaces/inkscape"
   width="612"
   height="198"
   id="svg2"
   version="1.1"
   inkscape:version="0.48.1 "
   sodipodi:docname="obugger_logo.svg">
  <defs
     id="defs4" />
  <sodipodi:namedview
     id="base"
     pagecolor="#ffff44"
     bordercolor="#666666"
     borderopacity="1.0"
     inkscape:pageopacity="0"
     inkscape:pageshadow="2"
     inkscape:zoom="1.4"
     inkscape:cx="310.4752"
     inkscape:cy="107.26213"
     inkscape:document-units="px"
     inkscape:current-layer="layer1"
     showgrid="false"
     inkscape:window-width="1366"
     inkscape:window-height="746"
     inkscape:window-x="-8"
     inkscape:window-y="-8"
     inkscape:window-maximized="1" />
  <metadata
     id="metadata7">
    <rdf:RDF>
      <cc:Work
         rdf:about="">
        <dc:format>image/svg+xml</dc:format>
        <dc:type
           rdf:resource="http://purl.org/dc/dcmitype/StillImage" />
        <dc:title></dc:title>
      </cc:Work>
    </rdf:RDF>
  </metadata>
  <g
     inkscape:label="Layer 1"
     inkscape:groupmode="layer"
     id="layer1"
     transform="translate(0,-854.36218)">
    <g
       id="1"
       transform="translate(-0.5129155,854.89239)">
      <path
         d="m 199.55258,13.374077 0.12499,-1.124922 -0.12499,-0.999931 -0.24999,-0.562461 -0.24999,-0.43747 -0.68747,-0.812444 -0.49997,-0.3749741 -0.43748,-0.2499828 -0.49997,-0.2499827 -0.43748,-0.062496 -35.99821,-7.1245085 -0.62497,-0.1874871 -0.62497,0.062496 -0.62497,0.062496 -0.49997,0.3124784 -0.62497,0.2499828 -0.43748,0.4374698 -0.43748,0.4374698 -0.31248,0.5624612 -0.31249,0.4999655 -0.18749,0.5624612 -0.0625,0.6249569 0.0625,0.6874526 6.0622,59.808374 0.0625,0.562461 0.18749,0.562461 0.24998,0.499966 0.43748,0.562461 -0.56247,0.312478 -1.49992,0.937436 -1.24994,1.062426 -1.06245,1.187419 -0.74996,1.312409 -0.56247,0.87494 -0.37499,0.999931 -0.43747,2.187349 -0.18749,0.999931 0.0625,1.124922 0.31249,2.124854 0,-0.0625 0.12499,0.687452 0.24999,0.749949 0.68746,1.437401 0.87496,1.374905 0.56247,0.687452 0.68747,0.749949 1.31243,1.249913 1.56243,1.124923 -3.93731,-0.812444 -1.12494,-0.124992 -1.06245,0.312479 -1.06245,0.499965 -0.43748,0.374974 -0.31248,0.499966 -0.56247,0.937435 -0.18749,0.499966 0,0.624957 -0.43748,6.874526 -0.12499,3.374768 0,3.43727 0,3.31227 0.12499,3.37476 0.37498,6.62455 0.56247,6.49955 0.37498,3.18728 0.49998,3.24977 1.06245,6.37457 0.62496,3.12478 0.74997,3.18728 -2.31239,-5.99959 -2.06239,-6.12457 -1.93741,-6.49956 -0.93745,-3.31227 -0.87496,-3.37476 -1.68741,-6.99952 -0.81246,-3.62475 -0.68747,-3.62475 -0.74996,-3.74974 -0.68747,-3.812244 -1.18744,-7.749465 -0.18749,-0.687453 -0.18749,-0.562461 -0.31248,-0.499965 -0.37499,-0.43747 -0.56247,-0.499966 -0.49997,-0.312478 -0.56248,-0.249983 -0.56247,-0.124991 -21.87391,-3.749742 -1.24994,-0.06249 -0.56247,0.06249 -0.49997,0.312479 -0.62497,0.249983 -0.43748,0.374974 -0.43748,0.374974 -0.31248,0.562461 -11.74942,20.123617 -0.31248,0.56246 -0.1875,0.62496 -0.0625,0.68745 0.0625,0.74995 0.0625,0.62495 0.31249,0.62496 0.31248,0.49997 0.56247,0.56246 3.06235,2.8748 2.99985,2.8748 2.87486,2.9373 2.81236,2.99979 2.68736,2.9998 2.56238,2.99979 2.43738,2.99979 2.43737,3.12479 2.1874,2.99979 2.12489,3.12478 2.0624,3.12479 1.9374,3.18728 1.81241,3.12478 1.68742,3.24978 1.56242,3.24977 1.56242,3.24978 -2.24989,-3.68725 -2.18739,-3.56225 -2.24989,-3.43726 -2.18739,-3.31227 -2.37488,-3.18728 -1.18744,-1.5624 -1.12494,-1.4374 -2.37489,-2.9373 -2.37488,-2.68731 -2.49987,-2.68731 -2.49988,-2.49983 -2.56237,-2.43733 -2.49988,-2.18735 -1.37493,-1.12493 -1.31243,-0.99993 -2.62487,-1.93736 -2.68737,-1.81238 -2.62487,-1.68738 -0.56247,-0.31248 -0.49998,-0.18749 -0.999946,-0.0625 -1.124944,0.0625 -0.937453,0.43747 -0.499976,0.24999 -0.374981,0.37497 -0.624969,0.93744 -5.374733,9.93681 -0.312484,-0.87494 -0.312484,-0.74995 0,-0.0625 -0.81246,-1.4999 -0.81246,-1.31241 -0.937453,-1.18742 -0.99995,-1.06242 -1.187441,-0.93744 -1.187441,-0.81244 -1.312435,-0.68746 -1.437428,-0.56246 0.0625,0 -1.562422,-0.49996 -1.499925,-0.31248 -1.499926,-0.12499 -1.499925,0.0625 -1.499925,0.18749 -1.437429,0.37497 -1.499925,0.49997 -1.374932,0.74995 -0.0625,0 -1.124944,0.68745 0.187491,-0.87494 0,-0.24998 0,-0.12499 0,-0.0625 0.0625,0 0.124993,-0.37497 -0.0625,-0.62496 -0.124994,-0.56246 -0.187491,-0.49997 -0.249987,-0.49996 -0.374982,-0.49997 -0.374981,-0.37497 -0.499975,-0.37498 -0.437479,-0.24998 -9.562024,-4.3747 1.687416,-1.81237 1.81241,-1.68739 0.499975,-0.62495 0.249988,-0.31248 0.312484,-0.24998 1.062447,-1.12493 0.999951,-1.18741 0.99995,-1.18742 0.874956,-1.312416 0.874957,-1.249914 0.374981,-0.687452 0.437478,-0.624957 0.374982,-0.687453 0.437478,-0.624957 0.249988,-0.562461 0.124993,-0.562461 0.187491,-0.499966 0.249988,-1.187418 0,-0.374974 0,-0.187487 0.0625,-0.124991 0.124994,-0.624957 0,-0.374974 0,-0.187487 0.0625,-0.124992 0.124994,-0.624957 0,-1.562392 0,-1.562392 -0.0625,-0.87494 0,-0.812444 -0.124994,-1.749879 -0.374981,-1.999862 -0.437478,-1.812375 -0.624969,-1.812375 -0.687466,-1.624888 -0.937453,-1.624888 -1.062448,-1.499896 -1.249937,-1.437401 -1.312435,-1.31241 -1.249938,-1.062426 27.123651,3.687245 1.437429,28.935507 0,0.56246 0.18749,0.62496 0.187491,0.49996 0.437478,0.56247 0.374981,0.43747 0.499976,0.37497 0.499975,0.31248 0.624969,0.24998 1.187441,0.12499 0.624969,-0.0625 0.624968,-0.12499 0.499976,-0.31248 0.249987,-0.18749 0.312485,-0.12499 0.437478,-0.37498 0.18749,-0.24998 0.249988,-0.18749 19.811506,-27.060632 28.2486,3.874732 0.56247,0 0.62497,-0.06249 0.62497,-0.124992 0.62497,-0.187487 0.49997,-0.374974 0.43748,-0.374974 0.37498,-0.499966 0.37498,-0.499965 0.1875,-0.624957 0.12499,-0.624957 0.0625,-0.624957 0,-0.562461 -0.37499,-1.187418 -0.31248,-0.562461 -0.37498,-0.43747 -16.99916,-17.24881 16.99916,-23.310892 0.31248,-0.624957 0.24999,-0.562461 0.12499,-0.624957 0.0625,-0.624957 -0.0625,-0.687453 -0.18749,-0.624957 -0.24998,-0.562461 -0.31249,-0.499965 -0.49997,-0.562461 -0.49998,-0.374975 -0.56247,-0.312478 -0.56247,-0.187487 -0.68747,-0.187487 -0.62497,0.0625 -1.18744,0.312478 -29.49853,11.874181 -21.498928,-21.810996 -0.499975,-0.499965 -0.499975,-0.312478 -0.562472,-0.249983 -0.499975,-0.0625 -1.249938,-0.0625 -1.124944,0.312479 -1.062447,0.624957 -0.437478,0.374974 -0.312485,0.562461 -0.499975,1.062427 -0.0625,1.187418 1.312435,29.810443 -27.686123,11.186729 -0.624969,0.249982 -0.499975,0.374975 -0.499975,0.437469 -0.312485,0.624957 -0.312484,0.562461 -0.187491,0.624957 -0.0625,0.624957 0.0625,0.687453 0.0625,0.249983 -0.99995,-0.749949 -0.874957,-0.624957 -1.687416,-0.999931 -1.9999,-1.124922 -2.249888,-1.124922 -2.499876,-1.124923 -2.62487,-0.999931 -1.687416,-0.562461 -1.687416,-0.43747 -1.874907,-0.312478 -0.99995,-0.124992 -0.937453,0 -2.187391,-0.06249 -2.249888,0.187487 -1.249938,0.06249 -1.187441,0.187487 -2.499876,0.43747 -2.624869,0.499966 -2.499876,0.749948 -2.437379,0.937435 -2.249888,1.187419 -2.312385,1.312409 -2.124894,1.624888 -2.062398,1.749879 -1.8749064,1.999862 -1.9374036,2.124854 -1.6249192,2.187349 -1.3749316,2.249845 -1.0624472,2.374836 -0.8749565,2.374836 -0.4999751,2.499827 -0.2499876,2.499828 0,2.624819 0.062497,2.374836 0.2499876,2.312341 0.2499876,2.062357 0.3749813,1.937367 0.3749814,1.687383 0.562472,1.562392 0.562472,1.312414 0.7499627,1.18742 0.562472,0.93743 0.8124596,1.12492 0.8124596,1.18742 1.0624472,1.31241 1.0624471,1.31241 1.187441,1.4999 1.3124351,1.49989 1.499925,1.68739 0.812459,0.62496 0.437479,0.24998 0.562472,0.24998 1.062447,0.12499 0.499975,0 0.624969,-0.0625 0.437478,-0.24999 0.499975,-0.24998 0.0625,-0.12499 0.124994,-0.0625 0.249988,-0.12499 0.499975,-0.31248 13.374335,-14.124025 0.437478,-0.624956 0.124994,-0.312479 0.18749,-0.249983 0.0625,-0.374974 0.124994,-0.312478 0.187491,-0.624957 -0.0625,-0.749948 -0.124994,-0.687453 -0.249988,-0.624957 -0.312484,-0.562461 -0.81246,-1.249914 -0.624969,-1.124922 -0.437478,-1.187418 -0.312484,-1.124923 -0.187491,-1.249913 -0.0625,-0.624957 0.0625,-0.562462 0.124994,-1.249913 0.312484,-1.187418 0.562472,-0.499966 0.687466,-0.374974 1.437429,-0.43747 0.937453,-0.0625 0.99995,0.124992 0.874957,0.187487 0.937453,0.312478 0.749963,0.374974 0.812459,0.562462 0.749963,0.624957 0.749963,0.812443 0,0.0625 0.312484,0.562461 0.187491,0.624957 0,0.687453 -0.124994,0.749948 0,0.0625 -0.812459,1.87487 -0.249988,0.43747 -0.187491,0.499966 -0.437478,0.999931 -1.062447,1.87487 -1.062447,1.874871 -1.187441,1.624888 -0.99995,1.749879 -1.874907,3.562254 -1.562423,3.68725 -1.18744,3.81223 -0.437479,1.31241 -0.18749,1.37491 -0.0625,1.4374 0.0625,1.49989 0.0625,0.0625 0.124993,1.37491 0.374982,1.49989 0.124993,0.56246 0.312485,0.56246 0.374981,0.43747 0.499975,0.49997 19.624024,16.37387 0.937454,0.49997 1.062447,0.37497 0.499975,0 0.562472,0 0.499975,-0.12499 0.624969,-0.18749 0.0625,-0.12499 0.124994,-0.0625 0.249987,-0.12499 0.499975,-0.31248 0.374982,-0.43747 0.374981,-0.37497 4.187292,-6.37456 -0.249988,1.12492 -0.0625,1.18742 0.124994,2.37484 0.124994,1.12492 0.312484,1.18742 0.937454,2.37483 -0.0625,-0.0625 0.687466,1.4374 0.812459,1.31241 0.937454,1.18742 1.062447,1.12492 1.062447,0.93743 1.312435,0.81245 1.312435,0.68745 1.562422,0.68745 -0.0625,0 0.99995,0.31248 1.124944,0.24998 2.124895,0.24999 0.99995,0 1.124944,-0.0625 2.124894,-0.37497 -0.312484,0.62495 -0.187491,0.62496 -0.0625,0.68745 0.187491,0.74995 0.124994,0.62496 0.312484,0.62496 0.437478,0.56246 0.562472,0.49996 0.562472,0.31248 0.624969,0.31248 0.687466,0.18749 0.749963,0.0625 3.749813,0 1.874907,0.12499 1.937404,0.24999 3.749813,0.68745 1.874907,0.49996 1.937404,0.62496 1.812409,0.62496 1.874911,0.74995 3.74981,1.74988 3.62482,2.06235 3.74981,2.49983 3.62482,2.68732 3.62482,3.12478 1.74991,1.62489 1.81241,1.81237 3.62482,3.87474 3.49983,4.06221 1.74991,2.18735 1.81241,2.31234 3.49983,4.81217 1.74991,2.56233 1.81241,2.68731 0.31249,0.43747 0.43747,0.43747 0.49998,0.31248 0.62497,0.31248 0.49997,0.18748 0.62497,0.0625 0.62497,0 0.62497,-0.0625 0.56247,-0.24998 0.56247,-0.24998 0.43748,-0.37498 0.49998,-0.37497 5.24974,-5.87459 0.31248,-0.49997 0.24999,-0.49997 0.37498,-0.99993 0.0625,-0.43747 0.0625,-0.12499 0.125,-0.0625 0.24998,-0.12499 0.49998,-0.31248 0.37498,-0.43747 0.18749,-0.24999 0.24999,-0.18748 4.68727,-7.2495 0.99995,0.24998 0.93745,0.24998 1.06245,0.24999 0.68746,0.12499 0.81246,0.24998 1.81241,0.37497 2.31239,0.49997 0.62497,0.0625 0.74996,-0.0625 0.62497,-0.18749 0.31248,-0.12499 0.37498,-0.0625 0.31249,-0.18749 0.68746,0.18749 7.06215,0.81244 0.62497,-0.0625 0.125,-0.0625 0.18749,0 0.37498,0 0.62497,-0.18749 0.62497,-0.24998 0.49997,-0.43747 0.49998,-0.49997 0.37498,-0.56246 0.12499,-0.31248 0.18749,-0.24998 0.125,-0.74995 0.0625,-0.62496 -0.0625,-0.62495 -0.125,-0.62496 -1.49992,-4.87466 -1.24994,-4.74967 -0.99995,-4.74968 -0.74996,-4.74967 -0.49998,-4.74967 -0.24999,-4.74967 0,-4.74968 0.24999,-4.74967 0.49998,-4.74967 0.74996,-4.74967 0.99995,-4.74968 1.24994,-4.74967 1.49992,-4.74967 1.74991,-4.74967 1.99991,-4.74968 2.31238,-4.687171 0.18749,-0.624957 0.12499,-0.624957 0.0625,-0.624957 0,-0.499965 -0.37498,-1.187418 -0.31248,-0.562462 -0.37499,-0.437469 -0.49997,-0.499966 -0.49998,-0.312478 -0.56247,-0.249983 -0.49997,-0.124991 -12.93686,-2.624819 0.31248,-0.124992 0.37499,-0.06249 0.74996,-0.124992 0.68746,-0.249983 0.74997,-0.187487 1.37493,-0.562461 0.68746,-0.374974 0.74997,-0.312478 1.18744,-0.87494 1.12494,-0.87494 0.93746,-0.999931 0.81246,-0.999931 0.62496,-1.124922 0.24999,-0.624957 0.125,-0.312478 0.18749,-0.249983 0.37498,-1.249914 0.31248,-1.249914 0.0625,-1.374905 0,-1.312409 -0.18749,-1.31241 -0.31249,-1.249914 -0.56247,-1.249913 -0.62497,-1.187419 -0.81246,-1.124922 -0.87495,-1.062427 -0.0625,0 -1.37493,-1.312409 1.31243,0.0625 0.62497,-0.0625 0.31249,-0.124991 0.37498,-0.0625 0.56247,-0.249983 0.62497,-0.312478 0.43748,-0.499966 0.43748,-0.499965 0.31248,-0.624957 0.24999,-0.624957 13.31184,-53.121336 z"
         style="fill:#ffffff;fill-opacity:1;fill-rule:evenodd;stroke:none"
         id="2"
         inkscape:connector-curvature="0" />
      <path
         d="m 182.36593,65.557978 13.37433,-53.183832 -35.9982,-7.1245081 6.06219,59.8708701 16.56168,0.43747 z"
         style="fill:#000000;fill-opacity:1;fill-rule:evenodd;stroke:none"
         id="3"
         inkscape:connector-curvature="0" />
      <path
         d="m 177.74116,85.806581 0.81246,-0.624957 0.74996,-0.562461 0.62497,-0.687453 0.56247,-0.624957 0.43748,-0.749948 0.37498,-0.749948 0.24999,-0.87494 0.24999,-0.812444 0.0625,-0.937435 -0.0625,-0.87494 -0.18749,-0.87494 -0.18749,-0.812444 -0.37498,-0.874939 -0.43748,-0.749948 -0.56248,-0.749949 -0.56247,-0.687452 -1.12494,-1.062427 -0.74996,-0.562461 -0.68747,-0.43747 -1.43743,-0.687453 -1.56242,-0.562461 -1.68742,-0.312478 -1.81241,-0.187487 -1.68741,0.124991 -1.62492,0.249983 -1.49993,0.562461 -1.31243,0.749948 -1.06245,0.562461 -0.87496,0.749949 -0.68746,0.812444 -0.56247,0.937435 -0.62497,1.187418 -0.24999,1.437401 -0.12499,0.624957 0,0.687452 0.24998,1.374906 0.31249,0.937435 0.43748,0.999931 0.24998,0.43747 0.37499,0.499965 0.81246,0.999931 1.43742,1.249914 0.81246,0.562461 0.93746,0.499966 0.87495,0.374974 0.99995,0.374974 2.18739,0.499966 2.1249,0.124991 0.99995,-0.0625 1.06245,-0.124991 0.93745,-0.249983 0.99995,-0.312478 0.87496,-0.374974 0.43747,-0.249983 0.49998,-0.187487 z"
         style="fill:#000000;fill-opacity:1;fill-rule:evenodd;stroke:none"
         id="4"
         inkscape:connector-curvature="0" />
      <path
         d="m 172.9289,176.11285 7.06215,0.87494 -1.62492,-4.99965 -1.31244,-4.99966 -1.06244,-4.99965 -0.74997,-4.87467 -0.56247,-4.99965 -0.24999,-4.93716 0,-4.99966 0.31249,-4.87466 0.49997,-4.99966 0.74997,-4.93716 0.99995,-4.99965 1.37493,-4.87467 1.49992,-4.99965 1.87491,-4.87466 2.1249,-4.93716 2.37488,-4.874667 -28.43609,-5.874595 -0.31248,4.187211 -0.125,4.249711 -0.12499,4.18721 0.0625,4.18721 0.0625,4.06222 0.24999,4.12471 0.31249,4.06222 0.49997,4.06222 0.43748,3.93723 0.62497,3.99973 0.68746,3.87473 0.81246,3.93723 0.81246,3.81223 0.99995,3.87474 1.06245,3.74974 1.24994,3.81223 1.74991,5.18715 1.9374,5.12464 1.93741,4.93716 2.18739,4.81217 z"
         style="fill:#000000;fill-opacity:1;fill-rule:evenodd;stroke:none"
         id="5"
         inkscape:connector-curvature="0" />
      <path
         d="M 112.6819,43.871974 89.308058,20.123612 90.745487,52.746361 60.434494,64.995516 91.495449,69.307719 93.120369,101.55549 114.30681,72.557495 144.93029,76.744706 125.61875,57.058564 144.61781,30.997862 112.6819,43.871974 z"
         style="fill:#000000;fill-opacity:1;fill-rule:evenodd;stroke:none"
         id="6"
         inkscape:connector-curvature="0" />
      <path
         d="M 50.934967,66.745396 49.06006,65.682969 46.997663,64.683038 44.747774,63.683107 42.247899,62.683176 40.81047,62.18321 l -1.499925,-0.312478 -1.687416,-0.249983 -1.687416,-0.0625 -1.937404,-0.06249 -1.937404,0.187487 -2.124894,0.187487 -2.187391,0.43747 -2.312385,0.43747 -2.187391,0.687452 -2.124895,0.812444 -1.9999,1.062427 -1.999901,1.187418 -1.874906,1.374905 -1.81241,1.562392 -1.687416,1.74988 -1.62492,1.749879 -1.3749312,1.87487 -1.1874409,1.937367 -0.8749565,1.999862 -0.7499627,1.999862 -0.4374782,2.062358 -0.2499876,2.124853 0,2.249845 0.062497,2.062358 0.1874907,1.999862 0.1874906,1.812375 0.3124845,1.687383 0.3124845,1.437401 0.4374782,1.374905 0.4999751,1.124923 0.624969,1.062426 0.562472,0.87494 0.6874658,1.06243 0.8124596,1.06242 0.9374531,1.24992 0.99995,1.24991 1.187441,1.37491 1.249938,1.4374 1.437429,1.62488 13.374335,-14.124021 -0.624969,-0.87494 -0.499976,-0.812443 -0.812459,-1.624888 -0.687466,-1.74988 -0.374981,-1.624888 -0.249988,-1.749879 0.124994,-1.749879 0.249988,-1.749879 0.562472,-1.74988 0.18749,-0.499965 0.374982,-0.374974 1.124944,-0.999931 1.249937,-0.749949 1.312435,-0.562461 1.437429,-0.312478 0.749962,-0.124992 0.81246,0 1.499925,0.124992 0.687466,0.06249 0.749963,0.187487 1.374931,0.499966 1.249938,0.624957 1.187441,0.812444 1.124944,0.999931 1.124944,1.187418 0.437479,0.687453 0.437478,0.749948 0.312484,0.749948 0.187491,0.87494 0.0625,0.749948 -0.0625,0.87494 -0.187491,0.874939 -0.18749,0.937436 -0.249988,0.499965 -0.124994,0.249983 -0.0625,0.124991 0,0.187487 -0.437478,1.124923 -0.499975,1.062426 -0.437478,1.124923 -0.624969,0.999931 -0.312485,0.499965 -0.249987,0.562462 -1.249938,2.124853 -1.999901,3.062291 -1.749913,3.31227 -0.812459,1.62489 -0.624969,1.74988 -1.124944,3.56225 -0.437478,1.99987 0,2.18735 0.437478,2.24984 19.624024,16.37387 11.24944,-17.18631 -10.374484,-4.87467 -0.624969,-0.37497 -0.437478,-0.37498 -0.437478,-0.43747 -0.249988,-0.37497 -0.18749,-0.49996 -0.0625,-0.49997 0,-0.56246 0.187491,-0.49997 0.374981,-1.06242 0.249987,-0.49997 0.437479,-0.37497 1.937403,-2.12486 2.062398,-1.93736 0,-0.12499 0.0625,-0.0625 0.124993,-0.12499 0.249988,-0.24998 0.499975,-0.49997 0.937454,-0.99993 0.874956,-1.062432 0,-0.124991 0.0625,-0.0625 0.124994,-0.124991 0.249987,-0.249983 0.499975,-0.499965 0.749963,-1.187418 0.81246,-1.124923 0.749962,-1.187418 0.749963,-1.124922 0.0625,-0.499966 0.124994,-0.43747 0.249987,-0.999931 0.124994,-1.062426 0.124994,-1.124923 0,-1.312409 0,-1.31241 -0.124994,-1.437401 -0.0625,-1.499896 L 64.184308,82.119327 63.871823,80.619431 63.309351,79.18203 62.746879,77.86962 61.93442,76.557219 61.12196,75.369801 60.184507,74.182383 59.12206,73.119956 56.809675,71.057598 55.68473,70.120163 54.68478,69.307719 53.622333,68.495275 52.68488,67.870318 51.747426,67.245361 50.934967,66.745396 z"
         style="fill:#000000;fill-opacity:1;fill-rule:evenodd;stroke:none"
         id="7"
         inkscape:connector-curvature="0" />
      <path
         d="m 65.121761,128.36614 -0.687466,2.24985 -0.18749,1.12492 0.0625,1.18742 0.312484,2.24984 0.312484,1.12493 0.499976,1.18742 0.437478,0.99993 0.624969,0.99993 0.624969,0.87494 0.812459,0.81244 0.81246,0.68745 0.937453,0.62496 0.99995,0.49997 1.124945,0.49996 0.99995,0.31248 1.124944,0.18749 0.499975,0 0.249988,0 0.124993,0 0.0625,0 0.124994,0.0625 1.124944,-0.0625 0.99995,-0.18749 1.124944,-0.24998 1.124944,-0.43747 1.124944,-0.43747 0.999951,-0.62496 0.437478,-0.37497 0.499975,-0.31248 0.81246,-0.74995 0.374981,-0.43747 0.437478,-0.37497 0.312485,-0.49997 0.374981,-0.43747 0.624969,-0.99993 0.249988,-0.56246 0.312484,-0.49997 0.499975,-1.12492 0.312485,-1.24991 0.18749,-1.12493 0.0625,-1.18741 0.0625,-1.12493 -0.124994,-1.12492 -0.18749,-1.12492 -0.312485,-1.12492 -0.374981,-1.12493 -0.562472,-1.12492 -0.624969,-0.93743 -0.687466,-0.87494 -0.749963,-0.74995 -0.874956,-0.74995 -0.874957,-0.56246 -0.99995,-0.49997 -0.99995,-0.37497 -1.124944,-0.43747 -1.124944,-0.18749 -1.124944,-0.0625 -0.999951,0.0625 -1.124944,0.0625 -0.99995,0.31248 -2.124894,0.93743 -1.124944,0.56246 -0.937454,0.68746 -0.874956,0.74994 -0.749963,0.87494 -0.749962,0.87494 -0.562473,1.06243 -0.562472,1.06243 -0.374981,1.18741 z"
         style="fill:#000000;fill-opacity:1;fill-rule:evenodd;stroke:none"
         id="8"
         inkscape:connector-curvature="0" />
      <path
         d="m 139.80555,89.931296 -21.87392,-3.749741 -11.74941,20.061115 4.62477,4.3747 4.49978,4.49969 4.24978,4.49969 3.9998,4.62468 3.68732,4.62468 3.49983,4.68718 3.24984,4.74967 2.99985,4.87466 2.74986,4.81217 2.49988,4.93716 2.24988,4.93716 1.9999,5.06215 1.74992,5.06215 1.49992,5.12465 1.24994,5.18714 1.12494,5.24964 6.24969,-9.68683 0.68747,0.12499 0.12499,0 0.0625,0 0.12499,0.0625 0.37499,0.12499 1.31243,0.37498 1.12494,0.24998 0.99995,0.37498 0.99995,0.24998 1.43743,0.31248 1.74992,0.37497 2.18739,0.49997 -0.49998,-0.37498 -0.24999,-0.24998 -0.18749,-0.24998 -0.31248,-0.37498 -0.24999,-0.37497 -0.18749,-0.24998 -0.12499,-0.18749 -0.24999,-0.37498 -0.37498,-0.56246 -0.125,-0.18748 -0.0625,-0.125 -0.125,-0.24998 -0.37498,-0.62495 -0.12499,-0.18749 -0.0625,-0.12499 -0.12499,-0.24999 -0.43748,-0.74994 -0.37498,-0.68746 -0.74996,-1.49989 -0.49998,-0.93744 -0.43748,-0.87494 -0.49997,-0.93743 -0.24999,-0.49997 -0.12499,-0.24998 -0.0625,-0.18749 -0.18749,-0.31248 -0.125,-0.24998 -0.24998,-0.49997 -0.49998,-1.06242 -0.99995,-2.24985 -0.62497,-1.24991 -0.56247,-1.24991 -1.12494,-2.62482 -1.24994,-2.81231 -1.24994,-2.9373 -1.37493,-3.18728 -1.24994,-3.18728 -1.24994,-3.31227 -1.18744,-3.37477 -1.18744,-3.49975 -1.06245,-3.49976 -1.06244,-3.62475 -0.99995,-3.68725 -0.99995,-3.81224 -0.93746,-3.87473 -0.93745,-3.99972 -0.81246,-3.99973 -1.56242,-8.374419 -0.74996,-4.312202 -0.62497,-4.312203 z"
         style="fill:#000000;fill-opacity:1;fill-rule:evenodd;stroke:none"
         id="9"
         inkscape:connector-curvature="0" />
      <path
         d="m 144.49281,192.92419 5.18725,-5.93709 -1.37494,-3.18728 -1.31243,-3.06229 -1.37493,-2.99979 -1.31244,-2.8748 -2.74986,-5.68711 -1.43743,-2.74981 -1.37493,-2.62482 -1.49993,-2.68731 -1.43742,-2.56233 -1.49993,-2.49983 -1.43743,-2.37483 -1.56242,-2.37484 -1.49993,-2.24984 -1.56242,-2.24985 -1.49992,-2.12485 -3.24984,-4.24971 -3.24984,-3.87473 -1.68742,-1.87487 -1.62492,-1.74988 -3.37483,-3.37477 -3.49982,-3.18728 -1.81241,-1.49989 -1.74992,-1.37491 -3.62482,-2.62482 -3.624816,-2.37483 -16.811664,30.99786 3.999801,-0.0625 1.999901,0.12499 2.062397,0.24999 3.999801,0.68745 3.999801,1.12492 1.937399,0.62496 1.99991,0.81244 3.9998,1.81238 3.8748,2.18735 1.93741,1.18741 1.9999,1.37491 1.8749,1.31241 1.93741,1.4999 3.87481,3.31227 3.74981,3.56225 3.87481,4.06222 3.74981,4.3122 3.74981,4.68718 1.81241,2.43733 1.87491,2.62482 3.74981,5.49962 z"
         style="fill:#000000;fill-opacity:1;fill-rule:evenodd;stroke:none"
         id="10"
         inkscape:connector-curvature="0" />
      <path
         d="m 581.1586,96.305856 -0.37499,-0.0625 -2.74986,-0.687453 -1.37493,-0.249983 -1.31244,-0.124991 -2.74986,-0.249983 -2.68736,0.0625 -0.125,0 -0.12499,0 -14.62428,-0.249983 -0.93745,0 -0.81246,0.187487 -0.81246,0.312479 -0.74996,0.499965 0.0625,-0.0625 -0.93746,0.749948 -2.93735,0.187487 -2.81236,0.374974 -2.74986,0.562461 -2.62487,0.687453 -0.0625,0 -0.18749,0.06249 -0.12499,0 -4.0623,1.249914 -3.87481,1.562389 -3.87481,1.68739 -3.68731,1.99986 0.0625,0 -0.93745,0.43747 -0.68747,0.68745 -0.56247,0.81245 -0.43748,0.93743 -1.56242,4.18721 -0.12499,0.37498 -0.93746,2.49982 -0.24998,-0.31247 -0.0625,-0.0625 -1.56242,-1.74988 -1.62492,-1.56239 -1.68742,-1.4374 -1.74991,-1.31241 -1.87491,-1.24992 -1.9374,-1.06242 -2.0624,-0.93744 -2.0624,-0.81244 -0.31248,-0.18749 -2.74986,-0.93743 -2.62487,-0.81245 -2.74987,-0.62495 -2.68736,-0.43747 -0.0625,0 -0.68747,-0.125 -2.12489,-0.0625 -2.0624,0.12499 -1.9999,0.18749 -1.9999,0.43747 -1.9999,0.49996 -1.9999,0.68746 -1.9374,0.81244 -1.87491,0.99993 -0.24999,0.12499 -0.31248,0.18749 0.0625,-0.0625 -2.31238,1.4999 -2.12489,1.68738 -1.93741,1.81238 -1.74991,1.93736 0,0.0625 -1.62492,1.93737 -1.37493,2.06235 -1.31244,-1.93736 -1.31243,-1.81238 -0.0625,-0.0625 -1.56242,-1.74988 -1.62492,-1.56239 -1.74991,-1.43741 -1.74992,-1.3124 -1.8749,-1.31241 -1.93741,-1.06243 -2.06239,-0.93744 -2.0624,-0.81244 -0.24999,-0.12499 -2.74986,-0.93744 -2.68737,-0.81244 -2.74986,-0.687454 -2.68737,-0.43747 -0.0625,0 -0.62497,-0.0625 -0.0625,0 -2.12489,-0.0625 -2.0624,0.0625 -1.9999,0.187487 -1.9999,0.43747 -1.9999,0.499967 -1.9999,0.68746 -1.93741,0.81244 -1.8749,0.99993 -0.24999,0.18749 -0.18749,0.12499 -0.0625,0.0625 -2.0624,1.3124 -1.9374,1.4999 -1.81241,1.56239 -1.62492,1.74988 -0.12499,-0.56246 -0.31249,-0.81244 -0.31248,-0.68746 -0.43748,-0.62495 -0.49998,-0.56246 -0.68746,-0.56246 -0.62497,-0.37498 -0.74996,-0.31248 -0.68747,-0.18748 -16.93666,-3.56226 -1.06244,-0.18749 -0.99995,0.0625 -0.93746,0.18749 -0.87495,0.43747 -0.0625,0 -0.93745,0.43747 -0.68747,0.68745 -0.56247,0.81244 -0.43748,0.93744 -0.37498,0.87494 -0.125,0.99993 0.0625,0.99993 0.24999,0.99993 0.12499,0.62496 0,0.12499 0.0625,0.18749 0.12499,0.37497 0.37498,1.37491 0.31249,1.24991 0.37498,1.31241 0.24999,1.18742 0.24999,1.18742 0.18749,1.12492 0.24998,1.18742 0.0625,0.99993 0.12499,0.99993 0,0.43747 0.0625,0.49996 0.125,0.99993 -0.0625,0.87494 0,0.87494 -0.0625,0.37498 0,0.43747 0,0.81244 -0.12499,0.31248 -0.0625,0.37497 -0.12499,0.74995 -0.24999,1.37491 -0.18749,0.62495 -0.12499,0.68746 -0.24999,1.31241 -0.37498,1.18741 -0.31249,1.12493 -0.37498,1.06242 -0.31248,0.99993 0,-0.0625 -0.31249,0.49996 -0.18749,0.24999 -0.12499,0.31248 -0.74997,0.99993 -0.49997,0.43747 -0.49998,0.49996 -0.56247,0.37498 -0.49997,0.43747 -0.31249,-0.125 -0.24999,-0.0625 -0.49997,-0.24998 -1.12494,-0.62496 -0.62497,-0.43747 -0.62497,-0.49997 -0.37498,-0.31247 -0.31249,-0.24999 -0.62497,-0.62495 -1.31243,-1.37491 -0.62497,-0.74995 -0.49998,-0.68745 -0.93745,-1.56239 -0.81246,-1.56239 -0.68746,-1.68739 -0.49998,-1.74988 -0.31248,-1.87487 -0.18749,-1.87487 0,-0.0625 -0.1875,-2.24985 0.0625,-2.18735 0.0625,-2.12485 0.31248,-2.12486 0.31249,-2.12485 0.43748,-2.06236 1.31243,-4.06222 0.24999,-1.06242 0.12499,-0.99993 -0.12499,-0.99993 -0.24999,-0.99994 -0.0625,-0.0625 -0.49997,-0.93744 -0.56247,-0.812446 -0.81246,-0.687452 -0.81246,-0.562461 -0.99995,-0.499966 -0.99995,-0.187487 -0.99995,-0.0625 -0.99995,0.249983 -14.87426,3.562249 -0.0625,0.0625 -1.31244,0.43747 -0.62496,0.37497 -0.49998,0.49997 -0.43748,0.43747 -1.12494,-2.06236 -0.62497,-0.93743 -0.68747,-0.874942 -1.62492,-1.687384 -1.74991,-1.562392 -0.12499,-0.0625 -1.87491,-1.312409 -1.87491,-0.999931 -1.9999,-0.87494 -1.9374,-0.562461 -0.18749,-0.0625 -0.0625,0 -3.12484,-0.624957 -2.99985,-0.374974 -3.06235,-0.187487 -2.99985,0.0625 -3.06235,0.187487 -2.99985,0.437469 -2.99985,0.562462 -2.99985,0.812444 -13.87431,2.937297 -0.0625,0 -1.06245,0.249983 -0.87495,0.43747 -0.81246,0.624956 -0.62497,0.812444 -0.62497,0.87494 -0.37498,0.937435 -0.18749,0.99993 0.0625,1.12493 0.49998,5.99958 1.68742,2.18735 -0.56248,-0.43747 -0.56247,-0.18748 -0.49997,-0.125 -0.0625,-1.4374 -2.37488,-2.68731 -1.24994,-1.31241 -1.18744,-1.18742 -2.62487,-2.43733 -2.68737,-2.187353 -1.81241,-1.374905 -1.74991,-1.187418 -1.81241,-1.187419 -1.81241,-1.062426 -1.9374,-1.062427 -1.93741,-0.87494 -1.9999,-0.874939 -1.9374,-0.749948 -4.1248,-1.437401 -4.12479,-1.124923 -2.12489,-0.499965 -2.0624,-0.374974 -2.1249,-0.312479 -2.06239,-0.187487 -0.0625,0 -4.56227,-0.312478 -4.43728,0.0625 -4.43728,0.312479 -4.37478,0.687452 -4.31229,0.87494 -4.0623,1.249914 -4.0623,1.499896 -3.81231,1.874871 -1.9999,0.937435 -1.8749,1.062427 -1.87491,1.124922 -1.74991,1.249914 -3.43733,2.624819 -1.68742,1.374903 -1.56242,1.56239 -1.56242,1.37491 -1.43743,1.49989 -1.37493,1.4999 -1.24994,1.62489 -2.49988,3.31227 -2.18739,3.56225 -0.24999,0.37498 -1.06244,1.74988 -0.93746,1.87487 -1.62492,3.81224 -1.37493,3.93722 -0.93745,4.06222 -0.81246,4.12472 -0.37498,4.18721 -0.12499,4.24971 0.31248,4.3122 0.49997,4.12472 0.37499,1.99986 0.56247,2.06235 0.56247,1.93737 0.68747,1.99986 0.74996,1.93737 0.87496,1.99986 0.81245,1.81238 0.99995,1.87487 0.99996,1.81237 1.12494,1.81238 1.12494,1.68738 1.24994,1.74988 1.31244,1.62489 1.43742,1.68738 2.81236,2.99979 1.49993,1.43741 1.62492,1.4374 1.56242,1.31241 1.68742,1.31241 3.56232,2.49982 0.49998,0.37498 3.68731,2.12485 3.93731,1.87487 1.9374,0.81245 1.9999,0.74994 1.9999,0.68746 2.1249,0.62495 0.31248,0.0625 4.12479,0.87494 2.1249,0.37497 2.12489,0.31248 4.24979,0.37497 4.37478,0.24999 0.0625,0 2.1249,-0.0625 2.18739,-0.12499 4.37478,-0.37497 4.24979,-0.74995 2.12489,-0.43747 2.18739,-0.49997 0.18749,0 1.9999,-0.68745 0.99995,-0.37497 0.49998,-0.18749 0.56247,-0.12499 0.43748,-0.24999 0.49998,-0.18748 0.99995,-0.37498 1.9999,-0.81244 1.8749,-0.93744 1.93741,-0.99993 3.74981,-2.12485 1.74991,-1.31241 1.81241,-1.24991 1.68742,-1.37491 1.74991,-1.31241 0.74996,-0.74995 0.37499,-0.37497 0.0625,-0.12499 0.125,-0.0625 0.24998,-0.12499 1.62492,-1.4374 0.74997,-0.81244 0.81246,-0.74995 1.56242,-1.4999 1.74991,-2.12485 0.81246,-1.12492 0.87496,-1.06243 1.56242,-2.24985 1.49992,-2.24984 0.74997,8.81189 0,0.0625 0,0.43747 0.12499,0.49996 0.31249,0.93744 0.18749,0.37497 0.31248,0.43747 0.68747,0.81245 0,0.0625 0.74996,0.56246 0.87496,0.56246 0.87495,0.31248 1.06245,0.24999 0.0625,0 1.49992,0.0625 1.49993,0.31248 0.93745,0.0625 2.68737,0.125 3.49982,0.18748 3.49983,0.12499 3.49982,-0.0625 1.74992,-0.0625 1.81241,0 3.43733,-0.24998 3.49982,-0.31248 3.49983,-0.43747 3.49982,-0.56246 0.31249,-0.0625 1.49992,-0.37498 1.49993,-0.37497 0.68747,-0.24999 0.74996,-0.18748 1.49992,-0.49997 1.31244,-0.62495 1.37493,-0.62496 1.24994,-0.68745 1.31243,-0.74995 1.12495,-0.87494 1.18744,-0.87494 1.12494,-0.99993 1.12495,-0.99993 0.99995,-1.12493 0.99995,-1.12492 0.93745,-1.24991 0.93745,-1.24992 0.18749,-0.24998 0.81246,-1.62489 0.37498,-0.81244 0.43748,-0.74995 0.62497,-1.68738 0.56247,-1.62489 2.0624,1.56239 2.18739,1.37491 2.18739,1.12492 2.31239,0.99993 2.31238,0.68745 2.43738,0.49997 2.49988,0.31248 2.62487,0.12499 0.0625,0 1.24994,-0.0625 0.62497,-0.0625 0.68747,0 0.0625,0 0.74997,-0.12499 0.37498,-0.0625 0.43748,0 1.62491,-0.24998 1.49993,-0.37498 1.62492,-0.43747 1.49992,-0.56246 1.49993,-0.62496 1.43743,-0.74994 1.49992,-0.74995 1.37494,-0.93744 1.37493,-0.99993 1.31243,-1.12492 1.37493,-1.18742 1.24994,-1.31241 1.31244,-1.3749 1.24993,-1.4374 1.24994,-1.4999 0.43748,-0.74995 0.49998,-0.68745 0.99995,-1.37491 1.06244,1.87487 1.18744,1.87487 1.31244,1.81238 1.49992,1.87487 0.31249,0.49997 1.37493,1.4374 1.43743,1.4374 1.43743,1.31241 1.56242,1.18742 1.49992,1.06242 1.62492,0.99993 1.62492,0.87494 1.74992,0.81245 1.68741,0.62495 1.81241,0.56246 1.81241,0.43747 1.87491,0.37498 1.87491,0.18749 1.9374,0.12499 1.9374,0.0625 2.0624,-0.0625 0.0625,0 0.81246,-0.18749 0.0625,0 2.0624,-0.49997 2.62487,-0.62495 2.62487,-0.87494 2.49988,-1.12492 0.56247,-0.37498 0.62497,-0.31248 1.24993,-0.62495 0.31249,-0.24999 1.24994,-0.93743 0.62497,-0.49997 0.31248,-0.24998 0.37498,-0.18749 1.24994,-1.06242 1.24994,-0.99994 1.12494,-1.18741 1.12494,-1.18742 1.06245,-1.24992 1.12495,-1.24991 0.81246,-1.24991 0.87495,-1.18742 0.93746,1.56239 1.06244,1.62489 1.12495,1.56239 1.31243,1.62489 0.37498,0.43747 1.37493,1.4374 1.43743,1.4374 1.43743,1.31241 1.56242,1.18742 1.49993,1.06243 1.62492,0.99993 1.62492,0.87494 1.74991,0.81244 1.68742,0.62496 1.74991,0.56246 1.81241,0.43747 1.87491,0.37497 1.8749,0.18749 1.93741,0.12499 1.9999,0.0625 2.06239,-0.0625 0.0625,0 0.81246,-0.12499 2.1249,-0.49997 2.62486,-0.62495 1.24994,-0.43747 0.62497,-0.24999 0.31249,-0.12499 0.37498,-0.0625 2.49987,-1.12493 0.56247,-0.37497 0.62497,-0.31248 1.24994,-0.68745 0.37498,-0.24998 1.24994,-0.93744 0.62497,-0.49996 0.31248,-0.24999 0.37499,-0.18748 1.24993,-1.06243 1.24994,-0.99993 1.12495,-1.18742 1.12494,-1.12492 1.06245,-1.24992 1.12494,-1.24991 0.81246,-1.12492 0.49998,1.4374 0,0.0625 0.12499,0.37498 0.24999,0.43747 0.56247,0.81244 0.68746,0.68745 0.81246,0.62496 3.99981,2.43733 4.18729,2.31234 0.24998,0.125 1.37494,0.74994 1.49992,0.68746 3.06235,1.24991 2.12489,0.74995 2.18739,0.68745 2.1249,0.62496 2.24989,0.56246 2.18739,0.43747 2.24989,0.37497 4.49977,0.49997 0.0625,0 0.74996,-0.0625 0.74996,-0.12499 0.31249,-0.12499 0.37498,-0.0625 0.74996,-0.31247 15.37424,0 0.12499,-0.0625 0.18749,0 0.37498,0 0.74997,-0.18749 0.68746,-0.24998 0.74997,-0.31248 0.0625,0 0.56247,-0.49996 0.56248,-0.49997 0.49997,-0.56246 0.43748,-0.62496 0,0.0625 0.31248,-0.74995 0.24999,-0.68745 0.125,-0.74995 0.0625,-0.74995 -0.12499,-3.31227 0.12499,1.3749 0.0625,1.43741 0,1.4374 -0.0625,1.49989 0,0.0625 -0.0625,0.81244 0.12499,0.87494 0.18749,0.74995 0.43748,0.87494 0.43748,0.68745 0.62497,0.62496 0.62496,0.49997 0.81246,0.49996 -0.0625,0 0.74996,0.31248 0.81246,0.18749 0.87496,0.0625 0.93745,0 23.24884,-2.99979 0.37498,-0.12499 0,-0.0625 0.0625,0 0.125,0 0.24998,0 0.37498,-0.18749 0.43748,-0.12499 0.74997,-0.43747 0.74996,-0.49996 0.0625,0 0.24999,-0.37498 0.125,-0.18748 0.18749,-0.12499 0.49997,-0.68746 0.125,-0.43747 0.18749,-0.37497 0.12499,-0.43747 0.18749,-0.37498 0.0625,-0.87493 0.0625,-0.87494 -0.18749,-0.87494 -0.18749,-0.81245 0,0.0625 -0.62497,-1.4999 -0.49997,-1.3749 -1.18744,-2.74981 -0.125,-0.24999 -0.68746,-1.62489 -0.0625,-0.31247 -0.56247,-1.4999 -0.56247,-1.37491 -1.18744,-2.68731 -1.37493,-2.56232 -1.43743,-2.43733 -1.68742,-2.31235 -0.87496,-1.12492 -0.87495,-0.99993 -1.93741,-2.06236 -1.9999,-1.81237 1.12495,-0.81245 1.12494,-0.81244 0.99995,-0.93743 0.99995,-0.99994 0.87496,-1.12492 0.87496,-1.18742 0.81245,-1.24991 0.37499,-0.68745 0.43747,-0.62496 0,-0.18749 0.0625,-0.12499 0.12499,-0.24998 0.49998,-1.24991 0.18749,-0.62496 0.24999,-0.56246 0.37498,-1.24992 0.37498,-1.18741 0.24999,-1.31241 0.24999,-1.24992 0.12499,-1.31241 0.12499,-1.24991 0,-0.12499 -0.12499,-2.56233 -0.37498,-2.31234 -0.62497,-2.18735 -0.37498,-1.06242 -0.43748,-0.99993 -1.12494,-2.06236 -1.37494,-1.81238 -1.62491,-1.68738 -1.74992,-1.56239 -0.0625,-0.12499 -2.49988,-1.74988 -2.49988,-1.56239 -2.62487,-1.374907 -2.62486,-1.187418 -3.62482,-1.374906 -3.62482,-0.999931 z m -3.06235,20.748574 0.18749,0.18748 0.31248,0.37498 0.24999,0.49996 0.18749,0.49997 0.0625,0.56246 -0.0625,0.37497 -0.12499,0.49997 -0.18749,0.37497 -0.24999,0.43747 -0.24999,0.18749 -0.49997,0.31248 -0.43748,0.24998 -0.18749,0 -0.125,0.0625 -0.24998,0.12499 -0.49998,0.12499 -0.62497,-0.12499 -0.49997,-0.18749 -0.49998,-0.24998 -0.37498,-0.31248 -0.24999,-0.18749 -0.31248,-0.43747 -0.18749,-0.37497 -0.125,-0.87494 0.18749,-1.06243 0.1875,-0.49996 0.43747,-0.37498 0.18749,-0.18748 0.81246,-0.49997 1.06245,-0.12499 0.0625,0 0.43748,0 0.49997,0.12499 0.87496,0.49997 z m -5.06225,36.68496 -0.37498,-4.99965 2.18739,0.31248 -1.81241,4.68717 z m -143.05539,-27.62309 0,-0.0625 0.62497,-0.56246 0.18749,-0.12499 1.68742,-0.74995 1.81241,-0.43747 0.74996,-0.0625 0.37498,0 0.43748,0.12499 0.68747,0.18749 0.74996,0.43747 0.43748,0.37497 0.43748,0.49997 -4.74977,-0.24999 -1.06244,0 -0.93746,0.18749 -0.93745,0.37497 -0.81246,0.62496 -0.56247,0.43747 0.87495,-0.99993 z m -2.37488,3.43726 -0.12499,0.37498 -1.37493,6.24957 0,-1.81238 0.31248,-1.68738 0.43748,-1.62489 0.74996,-1.4999 z m 124.8063,-2.43733 0,-0.74995 -0.0625,-0.74995 -0.18749,-0.68745 -0.24999,-0.62496 0.49998,-0.31247 0.0625,0 0.18749,-0.12499 0.24999,5.24963 0,5.24964 -0.12499,2.56232 -0.0625,2.62482 -0.12499,1.24992 -0.0625,0.62495 0,0.68746 -0.18749,2.62482 -0.81246,-0.31248 -0.0625,0 -0.87495,-0.18749 0.18749,-0.62496 0.24998,-0.56246 0.125,-0.62496 0.12499,-0.56246 0,-0.0625 1.12495,-14.68649 z m -65.62174,1.12492 0.62497,-0.56246 0.12499,-0.12499 1.68742,-0.81244 1.8749,-0.43747 0.74997,-0.0625 0.74996,0.12499 0.68747,0.18749 0.74996,0.43747 0.12499,0.0625 0.81246,0.81244 -4.81226,-0.18749 -1.06245,0 -0.93745,0.18749 -0.87496,0.37497 -0.81246,0.56246 -0.56247,0.49997 0.81246,-1.06243 0.0625,0 z m -2.37488,3.43727 -0.125,0.43747 -1.37493,6.24956 0,-1.81237 0.31249,-1.68738 0.43747,-1.62489 0.74997,-1.56239 z m -256.79973,-5.43713 1.9999,-1.87487 2.18739,-1.62489 2.24989,-1.3749 2.43738,-1.12492 2.43738,-0.87494 2.62487,-0.62496 2.68736,-0.37498 2.81236,-0.0625 2.74987,0.0625 1.31243,0.125 1.37493,0.24998 1.24994,0.24998 1.31243,0.37498 2.49988,0.87494 1.12494,0.49996 1.18745,0.62496 1.12494,0.62495 1.18744,0.74995 1.06245,0.74995 1.12494,0.87494 2.1249,1.87487 1.8749,1.93737 1.62492,2.18735 1.37493,2.18735 1.12495,2.37483 0.87495,2.37484 0.62497,2.56232 0.37498,2.62482 0.125,2.81231 -0.0625,0.62495 0,0.68746 -0.0625,1.3749 -0.37498,2.62482 -0.31248,1.24991 -0.18749,0.62496 -0.125,0.68745 -0.24998,0.56246 -0.18749,0.62496 -0.43748,1.24992 -0.56247,1.12492 -0.1875,0.24998 -0.12499,0.31248 -0.24999,0.62496 -0.37498,0.49996 -0.18749,0.24998 -0.12499,0.31248 -0.68747,1.12492 -1.62492,2.12486 -0.93745,0.99993 -0.49998,0.49996 -0.24998,0.24999 -0.125,0.12499 -0.0625,0.18749 -2.1249,1.87487 -1.12494,0.81244 -0.56247,0.37497 -0.49998,0.43747 -0.62497,0.31248 -0.56247,0.37498 -1.12494,0.68745 -0.62497,0.24998 -0.31249,0.12499 -0.24999,0.18749 -1.12494,0.56246 -2.49988,0.87494 -0.68746,0.12499 -0.62497,0.18749 -1.24994,0.31248 -1.37493,0.18749 -0.37498,0 -0.18749,0 -0.125,0.0625 -0.62496,0.12499 -2.74987,0.12499 -2.81236,-0.12499 -2.68736,-0.37497 -2.62487,-0.62496 -2.43738,-0.87494 -2.43738,-1.12492 -2.24989,-1.37491 -2.18739,-1.62488 -1.9999,-1.87487 -0.99995,-1.06243 -0.87496,-0.99993 -1.62492,-2.12486 -0.74996,-1.12492 -0.62497,-1.06242 -0.62497,-1.18742 -0.49997,-1.12492 -0.49998,-1.24992 -0.37498,-1.18742 -0.37498,-1.31241 -0.24999,-1.24991 -0.37498,-2.62482 -0.0625,-2.68731 0.0625,-2.81231 0.37498,-2.62482 0.62497,-2.56232 0.87496,-2.37484 1.12494,-2.37483 1.37493,-2.18735 1.62492,-2.18735 1.87491,-1.93737 z m 92.12042,-12.49914 0.43748,0.56246 0.37498,0.68746 0.18749,0.68745 0.18749,0.87494 -0.125,0.31248 -0.0625,0.37497 -0.18749,0.74995 -0.37498,0.62496 -0.24999,0.31248 -0.18749,0.37497 0,0.0625 -0.37498,0.18748 -0.31249,0.24999 -0.62497,0.37497 -0.74996,0.18749 -0.74996,0.12499 -0.81246,-0.12499 -0.68747,-0.18749 -0.68746,-0.37497 -0.56248,-0.43747 0,-0.0625 -0.56247,-0.68745 -0.37498,-0.62496 -0.18749,-0.74995 -0.0625,-0.68745 0.0625,-0.87494 0.18749,-0.68745 0.37498,-0.68746 0.56247,-0.56246 0.56248,-0.56246 0.68746,-0.37497 0.68747,-0.18749 0.81246,-0.0625 0.74996,0.0625 0.74996,0.18749 0.62497,0.37497 0.68747,0.56246 z m 22.87386,15.9364 -1.12494,1.37491 -0.18749,-0.62496 -0.31249,-0.56246 -0.31248,-0.37497 -0.31249,-0.24999 -0.37498,-0.24998 -0.31248,-0.12499 1.43742,0.31248 1.49993,0.49996 0.24999,-0.37497 0.0625,0.49997 -0.31248,-0.125 z m -16.1242,29.62296 -1.43743,-0.12499 -1.24993,-0.31248 -1.18745,-0.56246 -0.99995,-0.74995 -0.74996,-0.74995 -0.31248,-0.43747 -0.18749,-0.37497 -0.31249,-0.87494 -0.0625,-0.87494 0,-0.0625 0.0625,-0.99993 0.31249,-0.87494 0.49997,-0.81244 0.74996,-0.68745 0.99995,-0.81245 1.18745,-0.49996 1.24993,-0.37498 1.43743,-0.0625 1.31244,0.0625 0.62497,0.12499 0.68746,0.24999 0.56247,0.18748 0.62497,0.31248 1.12495,0.81245 0.62497,0.68745 0.49997,0.81244 0.31249,0.87494 0.18749,0.99993 0,0.0625 -0.18749,0.87494 -0.31249,0.87494 -0.24999,0.37497 -0.24998,0.43747 -0.62497,0.74995 -1.12495,0.74995 -0.62497,0.24998 -0.31248,0.12499 -0.24999,0.18749 -0.68746,0.12499 -0.62497,0.18749 -0.37498,0 -0.1875,0 -0.12499,0.0625 -0.62497,0.0625 z"
         style="fill:#ffffff;fill-opacity:1;fill-rule:evenodd;stroke:none"
         id="11"
         inkscape:connector-curvature="0" />
      <path
         d="m 586.15835,103.99283 -1.62492,-0.68746 -1.56242,-0.49996 -3.12485,-0.87494 -2.49987,-0.62496 -2.49988,-0.37497 -2.49988,-0.24999 -2.49987,0.0625 -14.87426,-0.24998 0.0625,0.49996 0.125,0.56246 0.24999,1.12493 0.49997,2.24984 0.37498,2.18735 0.43748,2.24985 0.68747,4.37469 0.24998,2.18735 0.31249,2.24985 0.12499,2.12485 0,0.49997 0.0625,0.56246 0.12499,1.12492 0.125,2.12485 0,0.49997 0.0625,0.56246 0.125,1.12492 0.0625,4.24971 0,2.12485 0,1.06243 0.0625,1.12492 -0.18749,4.12472 -0.12499,0.99993 -0.0625,0.49996 0,0.56247 -0.12499,2.12485 -0.43748,4.12471 -0.18749,0.99993 -0.125,1.06243 -0.24998,2.12486 -0.81246,3.99972 -0.43748,1.99986 -0.37498,2.06236 -1.06245,3.99972 -1.06245,3.99973 -3.62482,-18.12375 -1.12494,0.37497 -2.81236,0.43747 -2.37488,0.18749 -2.37489,0.0625 -2.37488,0 -0.62497,-0.0625 -0.56247,0 -1.12494,0 -0.68747,-9.62434 9.74952,0.12499 1.12494,-14.74898 -11.37443,2.12485 1.56242,-10.24929 12.56187,0.56246 0.87496,-2.37483 0.31249,-1.24992 0.37498,-1.18742 0.0625,-0.62495 0.125,-0.56246 0.24999,-1.31241 0.12499,-1.37491 0.0625,-0.74995 0.12499,-0.68745 0.12499,-1.56239 0.125,-1.68738 0.0625,-1.74988 0.125,-1.81238 -2.93736,0.12499 -2.81236,0.31248 -2.74986,0.49997 -2.68737,0.68745 -3.74981,1.18742 -3.62482,1.4374 -3.56232,1.62489 -3.37483,1.81237 -0.93746,2.12485 -0.74996,2.24985 -0.81246,2.12485 -0.62497,2.24985 -0.68746,2.18735 -0.49998,2.31234 -0.62497,2.8748 -0.43748,2.99979 -0.31248,2.8748 -0.12499,2.9998 -30.93597,-1.4374 -3.74981,16.62385 18.0616,-3.18728 -0.37498,0.62496 -0.43748,0.74994 -0.49997,0.68746 -0.56247,0.74994 -0.68747,0.62496 -0.74996,0.68745 -0.81246,0.62496 -0.87496,0.74995 -0.56247,0.24998 -0.49998,0.31248 -0.18749,0 -0.12499,0.0625 -0.24999,0.12499 -0.49997,0.24998 -1.12495,0.31248 -1.12494,0.31248 -1.31244,0.12499 -0.68746,0 -0.62497,0.0625 -1.37493,-0.0625 -1.37493,-0.18749 -1.18745,-0.18749 -1.06244,-0.18748 -1.93741,-0.56246 -0.93745,-0.43747 -0.81246,-0.37498 -0.81246,-0.49996 -0.68746,-0.49997 -0.74997,-0.62496 -0.62497,-0.62495 -1.06244,-1.4374 -0.49998,-0.87494 -0.37498,-0.81245 -0.37498,-0.93743 -0.24999,-0.93744 -0.74996,-2.99979 -0.31249,-2.81231 0,-2.74981 0.43748,-2.56232 0.68747,-2.56232 1.12494,-2.37484 1.37493,-2.31234 1.81241,-2.18735 0.74997,-0.81244 0.93745,-0.62496 1.43743,-0.87494 1.56242,-0.68745 1.56242,-0.49997 1.68742,-0.31248 1.74991,-0.0625 1.74991,0.24998 0.81246,0.18749 0.87496,0.37497 1.62492,0.87494 0.81246,0.62496 0.74996,0.74995 0.68747,0.81244 0.68746,0.93744 0.62497,1.12492 0.49998,1.31241 0.31248,1.31241 0.18749,1.49989 17.06165,-2.8748 -0.87495,-2.68731 -0.49998,-1.24992 -0.56247,-1.18741 -1.37493,-2.31234 -0.74996,-1.12493 -0.81246,-0.99993 -1.37493,-1.49989 -1.37494,-1.31241 -1.43742,-1.31241 -1.49993,-1.06243 -1.62492,-1.06243 -1.68742,-0.87494 -1.74991,-0.81244 -1.74991,-0.68745 -2.49988,-0.87494 -2.43738,-0.68746 -2.49987,-0.56246 -2.37488,-0.43747 -1.74992,-0.0625 -1.68741,0.0625 -3.31234,0.56246 -3.24984,0.93744 -1.62492,0.68745 -1.49992,0.81245 -1.9374,1.24991 -1.81241,1.4374 -1.68742,1.4999 -1.49993,1.68738 -1.56242,1.81238 -1.31243,1.93736 -1.18744,1.99986 -0.99995,2.12486 -0.87496,2.12485 -0.68747,2.24985 -0.56247,2.24984 -0.37498,2.37484 -30.93596,-1.4374 -3.74981,16.62385 18.0616,-3.12478 -0.74997,1.3749 -0.49997,0.68745 -0.56247,0.74995 -0.68747,0.62496 -0.74996,0.68745 -0.81246,0.62496 -0.87496,0.74995 -0.56247,0.24998 -0.49997,0.31248 -0.18749,0 -0.125,0.0625 -0.24999,0.12499 -0.49997,0.24999 -1.12495,0.31248 -1.12494,0.31247 -0.68747,0 -0.62496,0.0625 -0.68747,0 -0.62497,0.0625 -1.37493,-0.0625 -0.74996,-0.12499 -0.37498,-0.0625 -0.31249,0 -1.18744,-0.18748 -1.06245,-0.18749 -1.9374,-0.56246 -0.93745,-0.43747 -0.81246,-0.37498 -1.43743,-0.99993 -0.74996,-0.62495 -0.62497,-0.62496 -1.06245,-1.4374 -0.49998,-0.87494 -0.37498,-0.81245 -0.37498,-0.93743 -0.24999,-0.93744 -0.74996,-2.99979 -0.31248,-2.81231 -0.0625,-2.74981 0.43748,-2.56232 0.68746,-2.56232 1.12495,-2.37484 1.43743,-2.31234 1.81241,-2.18735 0.68746,-0.81244 0.93746,-0.62496 1.43742,-0.87494 1.56243,-0.68745 1.56242,-0.49997 1.68741,-0.31248 0.87496,-0.12499 0.93745,0.0625 1.74992,0.24998 1.62492,0.56246 1.62492,0.93744 0.81246,0.56246 0.81245,0.74995 0.68747,0.81244 0.68747,0.93744 0.62497,1.18741 0.49997,1.31241 0.31248,1.31241 0.125,1.4374 17.12415,-2.8748 -0.43748,-1.3749 -0.43748,-1.24992 -0.49997,-1.24991 -0.56248,-1.18742 -1.37493,-2.31234 -1.62492,-2.18735 -1.31243,-1.49989 -1.37493,-1.31241 -1.43743,-1.31241 -1.49993,-1.06243 -1.62492,-1.06243 -1.68741,-0.87494 -1.74992,-0.81244 -1.81241,-0.68745 -2.49987,-0.87494 -2.37488,-0.68745 -2.49988,-0.56247 -2.37488,-0.43747 -1.74991,-0.0625 -1.68742,0.0625 -3.31234,0.56247 -3.31233,0.93743 -1.62492,0.68745 -1.49993,0.81245 -1.9374,1.24991 -1.81241,1.4374 -1.68741,1.56239 -1.43743,1.68739 -1.74992,2.06236 -1.49992,2.24984 -1.31244,2.31234 -1.06244,2.43733 -0.93746,2.43733 -0.68746,2.56233 -0.49998,2.62482 -0.18749,2.8123 -0.12499,3.24978 0.0625,1.56239 0.1875,1.62489 0.56247,3.12478 0.37498,1.4999 0.49997,1.56239 1.12495,2.8748 0.62497,1.37491 0.81246,1.4374 0.81246,1.31241 0.93745,1.3749 0.99995,1.31241 1.12494,1.37491 2.31239,2.37483 1.18744,1.06243 1.31243,0.99993 1.24994,0.87494 1.31244,0.81245 1.37493,0.74994 1.43743,0.68746 1.37493,0.49996 1.43743,0.43747 1.49992,0.37498 1.56242,0.31248 1.56243,0.18748 1.62492,0.12499 3.31233,0 2.43738,-0.62495 0.99995,-0.31248 1.06245,-0.24998 0.99995,-0.37498 0.49997,-0.18749 0.56248,-0.12499 1.9999,-0.87494 0.93745,-0.49996 0.99995,-0.49997 1.12494,-0.81244 1.12495,-0.81245 0.49997,-0.49996 0.24999,-0.24998 0.12499,-0.125 0.0625,-0.0625 0.12499,0 1.12495,-0.87494 0.99995,-0.99993 0.99995,-0.99993 0.93745,-1.12493 0.99995,-1.06242 0.62497,-0.99993 0.62497,-0.93744 1.18744,-1.99986 0.49998,-1.06243 0.56247,-0.99993 0,-0.18749 0.0625,-0.12499 0.12499,-0.24998 0.24999,-0.49996 0.49997,-0.99994 0.87496,-2.74981 0.81246,-2.74981 0.12499,-0.74994 0.0625,-0.37498 0.12499,-0.31248 0.37498,-1.3749 0.24999,-1.4374 0.31249,-1.37491 -0.125,1.56239 0.0625,1.62489 0.24999,3.12479 0.18749,1.49989 0.37498,1.5624 0.37498,1.4374 0.49998,1.49989 0.49997,1.37491 0.62497,1.4374 1.43743,2.74981 0.81246,1.31241 0.93745,1.3749 2.0624,2.62482 2.31238,2.37484 1.18744,1.06243 1.24994,0.99993 1.24994,0.87494 1.31243,0.81244 1.37494,0.74995 1.43742,0.68745 1.37494,0.49997 1.49992,0.43747 1.49993,0.37497 1.56242,0.31248 1.56242,0.18749 1.62492,0.12499 3.31234,0 2.43737,-0.56246 0.99996,-0.31248 1.06244,-0.24999 0.99995,-0.37497 0.49998,-0.18749 0.56247,-0.12499 1.9999,-0.87494 0.0625,-0.12499 0.12499,-0.0625 0.24999,-0.125 0.49997,-0.24998 0.99995,-0.49996 1.12495,-0.81245 1.12494,-0.81244 0.49998,-0.49997 0.24998,-0.24998 0.125,-0.12499 0.0625,-0.0625 0.12499,0 1.12494,-0.87494 0.99995,-0.99993 0.99995,-0.99993 0.93746,-1.12492 0,-0.12499 0.0625,-0.0625 0.125,-0.12499 0.24999,-0.24998 0.49997,-0.49997 0.62497,-0.99993 0.31248,-0.49996 0.37499,-0.43747 1.18744,-1.99987 0.49997,-1.06242 0.49998,-0.99993 0,-0.18749 0.0625,-0.12499 0.125,-0.24999 0.24998,-0.49996 0.49998,-0.99993 0.24999,-0.87494 0.12499,-0.43747 0.18749,-0.37498 0.56247,-1.62488 0.93746,-3.37477 0.31248,-1.74988 0.37498,-1.68738 0.49998,-3.49976 -0.0625,2.8748 0.18749,2.9373 0.37498,4.49969 0.74997,4.49969 0.99995,4.37469 0.62497,2.18735 0.81245,2.24985 3.87481,2.31234 3.9998,2.24984 2.62487,1.37491 2.81236,1.12492 1.87491,0.68745 1.9999,0.62496 1.9999,0.56246 1.9999,0.49997 1.9999,0.37497 1.9999,0.31248 1.9999,0.24998 2.1249,0.18749 -0.125,-0.62496 18.1866,0 -0.43748,-14.87397 0,-1.93737 0,-0.81244 0.12499,-0.87494 0.37499,-0.74995 0.56247,-0.68745 0.87495,-0.49997 0.49998,0 0.24999,0.0625 0.37498,0.18748 0.62497,0.49997 1.12494,1.12492 1.06245,1.18742 0.93745,1.18742 0.93746,1.31241 1.49992,2.56232 1.24994,2.81231 0.43748,1.3749 0.37498,1.4374 0.31248,1.4999 0.24999,1.56239 0.12499,1.56239 0.0625,1.62489 -0.12499,3.31227 23.31134,-2.99979 -1.18744,-2.8123 -1.12495,-2.74982 -0.56247,-1.24991 -0.43748,-1.24991 -0.81246,-2.12486 -0.81246,-1.93736 -0.93745,-1.87487 -0.99995,-1.74988 -1.12494,-1.74988 -1.18745,-1.62489 -1.24993,-1.56239 -1.31244,-1.4374 -1.43743,-1.4374 -1.49992,-1.31241 -1.62492,-1.24992 -1.62492,-1.12492 -1.81241,-1.12492 -1.81241,-0.99993 -1.9374,-0.93744 -1.9999,-0.81244 2.74986,-0.0625 1.18744,-0.24998 1.24994,-0.12499 2.31238,-0.43747 1.62492,-0.49997 0.74996,-0.31248 0.81246,-0.24998 0.31249,-0.24998 0.37498,-0.18749 0.74996,-0.37497 0.62497,-0.43747 0.31249,-0.24998 0.37498,-0.18749 0.24998,-0.31248 0.31249,-0.24998 0.62497,-0.49997 0.49997,-0.62496 0.24999,-0.31247 0.31249,-0.24999 0.18749,-0.37497 0.24998,-0.31248 0.49998,-0.68745 0.43748,-0.74995 0.49997,-0.68745 0.81246,-1.99986 0.62497,-1.99987 0,-0.31248 0.0625,-0.24998 0.12499,-0.49996 0.18749,-0.99993 0,-0.56247 0.0625,-0.49996 0.12499,-0.99993 -0.12499,-1.87487 -0.18749,-1.68739 -0.43748,-1.62488 -0.56247,-1.43741 -0.81246,-1.49989 -0.93745,-1.31241 -1.18745,-1.24992 -1.24993,-1.06242 -2.18739,-1.56239 -2.24989,-1.37491 -2.31239,-1.18742 -2.31238,-1.06242 z m -3.81231,9.18686 0.56247,0.62496 0.49997,0.68745 0.43748,0.68745 0.37498,0.74995 0.24999,0.74995 0.18749,0.81244 0.125,0.81245 0.0625,0.87494 -0.0625,0.37497 0,0.43747 -0.125,0.87494 -0.18749,0.74995 -0.24999,0.81244 -0.37498,0.68746 -0.43748,0.74995 -0.49997,0.62495 -0.18749,0.12499 -0.125,0.18749 -0.24998,0.37497 -0.74997,0.56247 -0.68746,0.49996 -0.74996,0.43747 -0.68747,0.37498 -0.81246,0.24998 -0.74996,0.18749 -0.87496,0.12499 -0.43748,0 -0.37498,0.0625 -0.93745,-0.0625 -0.87496,-0.12499 -0.81246,-0.18749 -0.74996,-0.24998 -0.74996,-0.37498 -0.68747,-0.43747 -0.68747,-0.49996 -0.62496,-0.56247 -0.62497,-0.68745 -0.49998,-0.62495 -0.43748,-0.74995 -0.31248,-0.68746 -0.31249,-0.81244 -0.18749,-0.74995 -0.12499,-0.87494 0,-0.81244 0.12499,-1.68739 0.49998,-1.56239 0.74996,-1.4374 1.12495,-1.31241 1.31243,-1.12492 1.43743,-0.74995 1.56242,-0.49996 1.81241,-0.125 0.81246,0 0.87496,0.125 0.74996,0.18748 0.81246,0.31248 0.68747,0.31248 0.74996,0.43747 0.68746,0.49997 0.74997,0.62495 z"
         style="fill:#000000;fill-opacity:1;fill-rule:evenodd;stroke:none"
         id="12"
         inkscape:connector-curvature="0" />
      <path
         d="m 388.54318,106.43016 0.37498,1.56239 0.18749,0.74995 0.24999,0.81244 0.37498,1.4374 0.37498,1.4999 0.24999,1.3749 0.31248,1.37491 0.24999,1.31241 0.24998,1.31241 0,0.56246 0.0625,0.62496 0.125,1.18742 0,0.49996 0,0.24998 0,0.12499 0.0625,0.18749 0.0625,1.12492 -0.0625,0.99994 0,0.99993 -0.0625,0.0625 0,0.12499 0,0.24999 0,0.49996 -0.0625,0.0625 0,0.12499 0,0.24998 0,0.49997 -0.37498,1.62488 -0.18749,0.74995 -0.125,0.81245 -0.37498,1.49989 -0.12499,0.31248 -0.0625,0.37498 -0.12499,0.74994 -0.74997,2.62482 -0.37498,1.18742 -0.37498,1.12492 -0.49997,0.93744 -0.56248,0.99993 -0.68746,0.87494 -0.68747,0.87494 -0.81246,0.74995 -0.87495,0.81244 -0.99995,0.68745 -0.99995,0.74995 -0.62497,0.24999 -0.18749,0 -0.125,0.0625 -0.24998,0.12499 -1.12495,0.24999 -0.12499,-0.0625 -0.0625,0 -0.12499,0 -0.24999,0 -0.49998,-0.0625 -0.99995,-0.18748 -0.31248,-0.12499 -0.24999,-0.0625 -0.49997,-0.18749 -0.56248,-0.24998 -0.49997,-0.24998 -0.62497,-0.37498 -0.56247,-0.37497 -0.62497,-0.43747 -0.56247,-0.37498 -1.24994,-0.99993 -1.24994,-1.12492 -1.68741,-1.81237 -1.43743,-1.87487 -1.31244,-1.93737 -0.56247,-1.06243 -0.43748,-0.99993 -0.49997,-1.12492 -0.37498,-1.06243 -0.62497,-2.24984 -0.49998,-2.37484 -0.18749,-2.43733 -0.18749,-2.56232 0.0625,-2.49983 0.0625,-2.49983 0.31249,-2.37483 0.37498,-2.43734 0.56247,-2.37483 0.68747,-2.31234 0.81246,-2.24985 -14.87426,3.56226 -0.68747,1.87487 -0.56247,1.99986 -0.49998,1.99986 -0.31248,2.12485 -0.56247,4.31221 -0.0625,4.56218 -0.0625,1.93737 0.125,1.99986 0.12499,1.93737 0.24999,1.99986 0.24999,1.81237 0.37498,1.87487 0.43748,1.81238 0.56247,1.81237 0.49997,1.68739 0.68747,1.68738 0.68747,1.62489 0.81245,1.68738 0.81246,1.5624 0.93746,1.56239 0.99995,1.49989 1.12494,1.5624 1.06245,1.3749 1.12494,1.31241 2.31239,2.37484 1.18744,0.99993 1.24994,0.93743 1.24993,0.87494 1.31244,0.81245 2.56237,1.24991 1.37493,0.49997 1.43743,0.43747 1.37493,0.31247 1.49993,0.24999 1.49992,0.12499 1.56243,0.0625 2.12489,-0.12499 1.24994,-0.18748 1.37493,-0.24999 1.24994,-0.31248 0.62497,-0.18748 0.68746,-0.12499 1.18744,-0.49997 1.24994,-0.49996 1.18744,-0.62496 1.24994,-0.62496 2.24989,-1.62489 0.49997,-0.49996 0.24999,-0.24998 0.125,-0.125 0.18749,-0.0625 1.12494,-0.93744 2.12489,-2.24984 0.99995,-1.18742 1.06245,-1.24991 0.99995,-1.5624 0.99995,-1.49989 0.87496,-1.56239 0.87496,-1.5624 0.74996,-1.68738 0.68746,-1.62489 0.62497,-1.68738 0.62497,-1.68739 0.0625,-0.49996 0.12499,-0.43747 0.24999,-0.87494 0.0625,-0.49997 0.12499,-0.43747 0.24999,-0.87494 0.37498,-1.87487 0.37498,-1.81237 0.18749,-1.99986 0.0625,-0.99993 0.12499,-0.93744 0.125,-1.99986 0,-0.99993 0,-0.49997 0,-0.24998 0.0625,-0.18749 -0.12499,-3.68724 -0.37498,-3.56226 -0.56247,-3.43726 -0.74997,-3.31227 -16.93665,-3.62475 z"
         style="fill:#000000;fill-opacity:1;fill-rule:evenodd;stroke:none"
         id="13"
         inkscape:connector-curvature="0" />
      <path
         d="m 248.42514,91.806167 -4.12479,-0.249983 -4.1248,0.0625 -4.06229,0.312478 -3.9998,0.624957 -3.87481,0.749948 -3.68732,1.062427 -3.62482,1.374905 -3.49982,1.687384 -1.81241,0.874939 -1.68742,0.999931 -1.68742,0.999927 -1.56242,1.12492 -1.62492,1.12493 -1.49992,1.24991 -1.49993,1.24991 -1.37493,1.37491 -2.81236,2.68731 -2.49988,2.9373 -2.31238,3.12478 -1.9999,3.31228 -1.81241,3.18728 -1.43743,3.37476 -1.18744,3.43727 -0.87496,3.62475 -0.68746,3.68724 -0.31249,3.81224 -0.0625,3.81224 0.31248,3.87473 0.43748,3.62475 0.81246,3.62475 1.06245,3.49976 1.43742,3.49976 0.74997,1.62488 0.87495,1.68739 0.87496,1.62488 0.99995,1.62489 0.99995,1.4999 1.12494,1.56239 1.18745,1.4999 1.31243,1.49989 1.24994,1.37491 1.37493,1.4374 2.93735,2.68732 3.06235,2.49982 1.62492,1.12493 1.74991,1.18741 3.31234,1.87487 3.49982,1.74988 3.56233,1.37491 1.8749,0.62496 1.87491,0.56246 3.87481,0.87494 3.9373,0.62495 3.9998,0.37498 1.9999,0.12499 2.0624,0.0625 0.0625,-0.0625 0.12499,0 0.24999,0 0.49997,0 0.99995,0 1.99991,-0.0625 3.9998,-0.37497 0.43747,-0.12499 0.49998,-0.0625 0.99995,-0.12499 1.9999,-0.37497 3.9998,-0.87494 3.62482,-1.24992 1.74991,-0.68745 0.87496,-0.37497 0.18749,-0.125 0.24999,-0.0625 0.49997,-0.12499 1.68742,-0.87494 1.74991,-0.87494 1.62492,-0.93744 1.74992,-0.99993 1.62491,-1.18742 1.62492,-1.12492 1.56243,-1.24991 1.62492,-1.18742 1.43742,-1.37491 1.49993,-1.31241 1.37493,-1.4374 1.43743,-1.3749 1.18744,-1.4999 0.56247,-0.74995 0.62497,-0.68745 1.06245,-1.49989 1.12494,-1.4999 0.93746,-1.62489 0.93745,-1.62489 0.87496,-1.68738 0.87495,-1.68738 0.68747,-1.74988 0.62497,-1.74988 0.56247,-1.74988 0.49997,-1.74988 0.37499,-1.87487 0.31248,-1.74988 0.24999,-1.87487 0.24998,-1.81238 0.37499,-5.06215 -0.0625,-1.93736 -0.12499,-1.87488 -0.37499,-3.68724 -0.31248,-1.87487 -0.37498,-1.81238 -0.43748,-1.87487 -0.49998,-1.74988 -1.37493,-3.56225 -1.49992,-3.31227 -1.87491,-3.18728 -1.9999,-3.06229 -1.24994,-1.62489 -1.24994,-1.4999 -2.62486,-2.93729 -1.43743,-1.4374 -1.43743,-1.31241 -1.49993,-1.31241 -1.49992,-1.18742 -1.62492,-1.18742 -1.56242,-1.06243 -1.62492,-1.062418 -1.62492,-0.937435 -1.74992,-0.937436 -1.74991,-0.812444 -1.81241,-0.812444 -1.74991,-0.687452 -3.74981,-1.374905 -3.74982,-0.999931 -1.9374,-0.43747 -1.87491,-0.312479 -3.87481,-0.499965 z m -24.81126,30.372903 2.43738,-2.31234 1.24994,-1.06243 1.37493,-0.87494 2.68736,-1.68738 2.93736,-1.31241 2.93735,-1.06243 3.18734,-0.74994 3.18734,-0.43747 3.43733,-0.12499 1.62492,0 1.68742,0.12499 1.62492,0.12499 1.68741,0.31248 1.49993,0.31248 1.56242,0.43746 1.49993,0.43747 1.56242,0.62496 1.37493,0.56246 1.43743,0.74995 1.37493,0.74995 1.43743,0.93743 1.24994,0.87494 1.31243,1.06243 1.24994,1.06243 1.31243,1.24991 1.12495,1.18742 1.06245,1.24991 1.9999,2.56233 1.62491,2.68731 0.74997,1.37491 0.68746,1.4374 0.99995,2.93729 0.43748,1.4999 0.37498,1.56239 0.24999,1.5624 0.18749,1.62488 0.125,1.68739 0.0625,1.74988 -0.0625,1.62488 -0.125,1.68739 -0.12499,0.74995 -0.0625,0.37497 0,0.43747 -0.24999,1.62489 -0.37498,1.49989 -0.24999,0.74995 -0.12499,0.37498 -0.0625,0.18748 0,0.24999 -0.49997,1.4374 -0.49998,1.49989 -0.68746,1.37491 -0.74997,1.4374 -0.43747,0.62496 -0.37498,0.68745 -0.81246,1.3749 -0.99995,1.24992 -0.99995,1.31241 -1.06245,1.24991 -1.12495,1.31241 -1.31243,1.12492 -1.24994,1.06243 -1.31243,0.99993 -1.24994,0.93744 -0.74996,0.37497 -0.37499,0.18749 -0.31248,0.24998 -1.37493,0.81244 -0.74996,0.31248 -0.68747,0.37498 -1.37493,0.68745 -1.56242,0.49997 -1.49993,0.49996 -0.24999,0 -0.18749,0.0625 -0.37498,0.12499 -0.74996,0.24998 -1.49993,0.37497 -1.68741,0.24999 -1.62492,0.18748 -1.68742,0.125 -1.62492,0.12499 -3.43733,-0.24999 -1.62492,-0.18748 -1.56242,-0.24999 -1.62492,-0.37497 -1.56242,-0.43747 -2.93735,-0.99993 -2.93736,-1.37491 -2.68736,-1.62488 -1.37493,-0.93744 -1.24994,-0.99993 -1.24994,-1.06243 -1.18744,-1.12492 -1.24994,-1.31241 -1.06245,-1.24991 -1.06244,-1.31241 -0.93746,-1.24992 -0.93745,-1.3749 -0.74996,-1.31241 -0.74997,-1.4374 -0.56247,-1.37491 -0.62497,-1.49989 -0.43748,-1.4374 -0.43747,-1.5624 -0.31249,-1.49989 -0.31248,-1.62489 -0.125,-1.56239 -0.12499,-1.68739 0,-1.62488 0.12499,-3.43727 0.43748,-3.18728 0.74996,-3.06229 1.06245,-2.93729 1.31244,-2.81231 1.68741,-2.68731 1.9999,-2.56233 2.31239,-2.43733 z"
         style="fill:#000000;fill-opacity:1;fill-rule:evenodd;stroke:none"
         id="14"
         inkscape:connector-curvature="0" />
      <path
         d="m 333.42092,130.92847 1.37493,-1.24992 0.87496,-0.99993 0.43747,-0.49996 0.49998,-0.43747 0.81246,-0.99993 0.37498,-0.49997 0.18749,-0.24998 0.24999,-0.18749 0.12499,-0.31248 0.18749,-0.24998 0.37498,-0.49997 0.68747,-0.99993 1.12494,-2.12485 0.18749,-0.62496 0.24999,-0.56246 0.43748,-1.12492 0.12499,-0.62496 0,-0.18748 0.0625,-0.125 0.12499,-0.24998 0.31249,-1.12492 0.18749,-1.24991 0.0625,-0.62496 0.12499,-0.56246 0.12499,-1.31241 0.125,-1.24992 -0.125,-1.74988 -0.18749,-1.62488 -0.43747,-1.5624 -0.56248,-1.3749 -0.81246,-1.4374 -0.93745,-1.24991 -1.12494,-1.18742 -1.24994,-1.06243 -1.37493,-0.937435 -1.37494,-0.749948 -0.74996,-0.374974 -0.68746,-0.249983 -1.43743,-0.43747 -2.74987,-0.499966 -2.74986,-0.312478 -2.74986,-0.187487 -2.62487,0.0625 -2.74986,0.124991 -2.62487,0.374974 -2.68737,0.499966 -2.62487,0.749948 -14.31179,2.999792 6.18719,75.74477 3.49983,0.43747 1.56242,0 1.68742,0.12499 3.24984,0.18749 3.31233,0.12499 3.24984,0 3.37483,-0.0625 3.24984,-0.24999 1.62492,-0.18748 1.68742,-0.125 3.24983,-0.43747 3.37484,-0.49996 1.24993,-0.31248 1.24994,-0.31248 1.18744,-0.37497 1.24994,-0.37498 1.12495,-0.49996 1.12494,-0.49997 1.06245,-0.62495 1.12494,-0.56247 0.93745,-0.74994 0.99995,-0.68746 0.87496,-0.81244 0.18749,-0.24998 0.24999,-0.18749 0.49997,-0.37497 0.37499,-0.49997 0.18749,-0.24998 0.24998,-0.18749 0.37499,-0.49996 0.18749,-0.24999 0.24998,-0.18748 0.74997,-1.06243 0.81246,-0.99993 0.31248,-0.74995 0.37498,-0.68745 0.68747,-1.37491 0.43748,-1.49989 0.18749,-0.74995 0.24998,-0.68746 0,-0.43747 0.0625,-0.37497 0.12499,-0.74995 0,-0.43747 0.0625,-0.37497 0.125,-0.74995 0,-1.62489 -0.0625,-0.24998 0,-0.18749 0,-0.37497 0,-0.74995 -0.43748,-2.24984 -0.49998,-2.24985 -0.68746,-2.24984 -0.81246,-2.12486 -1.12494,-2.18735 -0.62497,-0.99993 -0.62497,-0.87494 -0.74997,-0.93743 -0.74996,-0.81245 -1.56242,-1.4374 -1.87491,-1.31241 -0.99995,-0.56246 -0.93745,-0.43747 -1.12494,-0.49996 -1.06245,-0.37498 -2.24989,-0.56246 -1.87491,-0.43747 -1.8749,-0.24998 -1.93741,-0.18749 -1.8749,-0.0625 2.99985,-2.49983 z m -6.74967,-14.37401 -0.12499,0.93743 -0.12499,0.93744 -0.24999,0.87494 -0.125,0.18749 -0.0625,0.24998 -0.125,0.49997 -0.43748,0.74994 -0.24998,0.37498 -0.125,0.18748 -0.0625,0.24999 -0.56248,0.74995 -0.62496,0.81244 -0.81246,0.62496 -0.74997,0.56246 -0.24998,0.0625 -0.18749,0.12499 -0.37499,0.24999 -0.24998,0.0625 -0.18749,0.12499 -0.37499,0.24999 -0.49997,0.12499 -0.24999,0.0625 -0.18749,0.125 -0.87496,0.24998 -0.93745,0.12499 -0.93745,0.12499 -1.93741,-0.24998 -0.93745,-0.24998 -0.87496,-0.31248 -0.87495,-0.43747 -0.74997,-0.43747 -0.74996,-0.56246 -0.68746,-0.62496 -0.74997,-0.81244 -0.56247,-0.74995 -0.49997,-0.81245 -0.37498,-0.74994 -0.37499,-0.93744 -0.18749,-0.87494 -0.12499,-0.93744 0,-0.93743 0,-1.06243 0.12499,-0.93743 0.56248,-1.81238 0.37498,-0.87494 0.49997,-0.74995 1.31244,-1.4374 1.43742,-1.31241 0.74997,-0.49996 0.87495,-0.37498 1.81241,-0.56246 1.93741,-0.12499 0.93745,0 0.93745,0.12499 0.87496,0.18749 0.93745,0.37497 0.81246,0.37498 0.81246,0.49996 0.74997,0.56247 0.81246,0.74994 0.62496,0.68746 0.56248,0.74994 0.43747,0.74995 0.43748,0.87494 0.31249,0.87494 0.24999,0.93744 0.12499,0.93743 0.12499,1.06243 z m -8.87456,45.30937 -0.93745,-0.87494 -0.68747,-0.87494 -0.68746,-0.93743 -0.43748,-0.87494 -0.43748,-0.99993 -0.24998,-0.99993 -0.1875,-1.06243 0.0625,-1.06243 -0.0625,-1.12492 0.1875,-1.06242 0.24998,-1.06243 0.43748,-0.93744 0.43748,-0.99993 0.68746,-0.87494 0.68747,-0.87494 0.93745,-0.74995 1.81241,-1.4374 0.99995,-0.56246 1.12495,-0.43747 1.06245,-0.37497 1.18744,-0.18749 1.18744,-0.18749 1.31243,0.0625 1.18744,-0.0625 1.24994,0.18749 1.12494,0.18749 1.18745,0.37497 0.99995,0.43747 1.06244,0.56246 0.93746,0.62496 0.99995,0.81244 0.81246,0.74995 0.68746,0.87494 0.56247,0.87494 0.56248,0.99993 0.37498,0.93744 0.31248,1.06243 0.18749,1.06242 0.0625,1.12492 -0.0625,0.49997 0,0.56246 -0.12499,0.49997 -0.0625,0.24998 0,0.31248 -0.31248,0.99993 -0.37498,0.99993 -0.56248,0.87494 -0.12499,0.0625 -0.0625,0.125 -0.12499,0.24998 -0.24999,0.49996 -0.68746,0.87494 -0.81246,0.87494 -0.99995,0.68746 -0.93746,0.62495 -0.56247,0.24999 -0.49997,0.31247 -0.99995,0.49997 -0.62497,0.12499 -0.18749,0 -0.125,0.0625 -0.24999,0.12499 -1.12494,0.24998 -1.24994,0.18749 -0.62497,0 -0.31248,0 -0.24999,0.0625 -1.31243,-0.0625 -1.18744,-0.18749 -1.18744,-0.24998 -1.06245,-0.31248 -1.12495,-0.49997 -0.99995,-0.56246 -0.93745,-0.62495 -0.87496,-0.68746 z"
         style="fill:#000000;fill-opacity:1;fill-rule:evenodd;stroke:none"
         id="15"
         inkscape:connector-curvature="0" />
      <path
         d="m 236.92572,107.68007 -0.43748,0.18749 -0.18749,0.43747 -0.18749,0.37497 -0.0625,0.49997 0.37498,5.06215 -0.62497,0.87494 0,-0.0625 -0.81246,1.31241 -0.62497,1.4999 -0.43747,1.4999 -0.24999,1.68738 0,0.12499 -0.125,2.31234 0.125,1.87487 0.0625,0.12499 0,0.56246 0,0.125 0.0625,0.49996 0.31249,0.62496 -0.56248,0.62495 -1.9999,-1.12492 -0.99995,-0.49996 -0.93745,-0.37498 -0.81246,-0.31248 -0.81246,-0.0625 -0.87496,0.0625 -0.81246,0.31248 0,-0.0625 -2.06239,0.87494 -0.99995,0.49996 -0.87496,0.68745 -1.68742,1.43741 -0.81246,0.81244 -0.68746,0.99993 0,0.0625 -1.43743,1.87487 -1.31243,2.06235 0,0.0625 -1.06245,1.87487 -0.81246,1.99986 -0.68747,1.99987 -0.43747,2.12485 -0.0625,0.24998 0.0625,0.31248 0.0625,0.24998 0.18749,0.31248 0.31249,0.37498 0.56247,0.31247 0.37498,0 0,-0.0625 0.0625,0 0.12499,0 0.24999,0 -2.0624,4.62468 -0.18749,0.49996 0.12499,0.56247 0.0625,0.18748 0.18749,0.24999 0.43748,0.43747 1.56242,0.99993 0.37498,0.12499 0.37499,0.0625 0.12499,-0.0625 0.18749,0 0.37498,-0.0625 7.9996,-3.81224 2.99985,2.24985 0.49998,1.93737 -1.9374,0.31247 -0.56248,0.125 -0.31248,0.37497 -2.99985,3.68725 -1.81241,2.18734 -1.56242,2.43734 -1.37494,2.56232 -1.12494,2.68731 -0.12499,0.24999 0,0.31248 0.12499,0.62495 0.31248,0.43747 0.1875,0.18749 0.31248,0.18749 3.43733,1.4374 0.37498,0.12499 0.37498,0.0625 0.37498,-0.12499 0.37498,-0.18748 6.93716,-4.81217 2.12489,2.18735 2.1249,2.37483 0.87495,0.99993 0.99995,1.06243 2.0624,2.06236 2.18739,1.87487 2.43738,1.81237 5.9997,4.18722 0.68747,0.31247 0.49997,0 0.49998,-0.0625 0.99995,-0.24998 0.43748,-0.24999 0.49997,-0.24998 0.43748,-0.37497 0.49998,-0.37498 2.12489,-2.49983 0.49998,-0.68745 0.56247,-0.62496 1.12494,-1.3124 0.24999,-0.43747 0.31248,-0.37498 0.56248,-0.74995 0.49997,-0.87494 0.24999,-0.43747 0.31248,-0.37497 0,-0.12499 0.87496,-1.74988 1.06245,-1.56239 1.18744,-1.4374 1.31243,-1.31241 8.93706,5.37463 0.43748,0.12499 0.62497,0.0625 0.49997,-0.24998 0.0625,-0.12499 0.12499,-0.0625 0.24999,-0.12499 0.12499,-0.31248 0.125,-0.24998 0.12499,-0.49997 -0.31248,-2.37483 -0.37499,-2.24985 -0.56247,-2.24984 -0.62497,-2.06236 -0.87495,-2.12485 -0.93746,-1.99986 -1.18744,-1.93737 -1.24994,-1.81238 -0.24998,-0.24998 -0.18749,-0.12499 -0.43748,-0.18749 -1.68742,-0.43747 1.87491,-4.37469 6.18719,4.37469 0.43748,0.18749 0.62497,0.0625 0.49997,-0.18749 0.49998,-0.31248 0.24999,-0.49996 0.12499,-0.49997 -0.12499,-1.4374 0,-0.0625 -0.31249,-2.12485 -0.43748,-1.99986 -0.62497,-1.99986 -0.68746,-1.87488 0.43748,-0.12499 0.37498,-0.24998 0.31248,-0.24998 0.18749,-0.49997 0.0625,-0.37497 -0.12499,-1.81238 -0.24999,-1.68738 -0.49998,-1.62489 -0.62496,-1.49989 -0.81246,-1.43741 -0.81246,-1.24991 -0.93746,-1.18742 -0.99995,-1.06242 -1.12494,-1.06243 -1.12495,-0.87494 -1.24993,-0.81244 -1.24994,-0.62496 -0.37498,-0.18749 -0.31249,0.0625 -4.43728,0 -0.49997,0.0625 -0.37498,0.18749 -0.37498,0.31248 -0.1875,0.43747 -0.12499,0.31248 -0.81246,-0.87494 0.18749,-1.24992 0.125,-1.24991 0,-2.43733 -0.125,-1.24992 -0.18749,-1.12492 -0.62497,-2.31234 -0.0625,-0.0625 -0.49998,-1.43741 -0.31248,-1.3749 -0.49998,-2.31234 -0.56247,-2.06236 -0.12499,-0.31248 -0.125,-0.18748 -0.31248,-0.31248 -4.31229,-2.9998 -0.31248,-0.18748 -0.24999,-0.0625 -0.31249,-0.0625 -0.24998,0.0625 -0.56247,0.12499 -0.37499,0.43747 -0.37498,0.49997 0,0.56246 0.18749,1.4374 -0.12499,1.12492 0,0.0625 -0.24999,0.81244 -4.43728,0.12499 0.74997,-3.37476 0,-0.62496 -0.125,-0.49997 -0.24999,-0.31247 -0.18749,-0.18749 -0.43747,-0.18749 -0.62497,-0.12499 -0.49998,0.18749 -5.9372,2.68731 z"
         style="fill:#ffffff;fill-opacity:1;fill-rule:evenodd;stroke:none"
         id="16"
         inkscape:connector-curvature="0" />
      <path
         d="m 242.48794,113.67966 -1.12494,-2.31234 0.43747,-2.8748 -2.81236,3.18728 0.62497,4.06222 -1.31243,1.87487 -0.56247,0.99993 -0.31249,1.06242 -0.31248,0.99994 -0.18749,1.12492 -0.0625,2.31234 0.12499,1.12492 0.31249,1.18742 0.43748,1.12492 0.62496,1.12492 -3.9998,4.06222 -3.49982,-3.18728 -0.87496,-0.31248 -0.81246,-0.0625 -0.87495,-0.0625 -0.81246,0.18749 -0.93746,0.18749 -0.87495,0.43747 -0.99995,0.56246 -0.87496,0.68745 -1.9374,1.4999 -1.68742,1.87487 -1.56242,2.18735 -0.68747,1.18742 -0.56247,1.3124 10.68697,-5.18714 3.8748,2.49983 -0.24998,5.87459 -2.37488,-2.49982 -0.24999,-0.43747 -0.18749,-0.31248 -0.43748,-0.56246 -0.49998,-0.37498 -0.56247,-0.18748 -0.68746,-0.0625 -0.37499,0 -0.31248,0.12499 -0.81246,0.31248 -0.43748,0.18749 -0.37498,0.31248 -2.24989,2.12485 -2.06239,2.49983 -2.0624,2.74981 -1.81241,3.06229 1.31243,0 8.0621,-5.62462 5.56223,4.4372 1.49992,9.37435 -2.18739,-1.18742 -1.06245,-0.62495 -0.81246,-0.18749 -0.68746,0.12499 -0.24999,0.18749 -0.12499,0.31248 -1.06245,1.18741 -0.99995,1.31241 -1.9999,2.9373 -2.1249,3.31227 -1.06244,1.81238 -0.99995,1.99986 10.37448,-7.2495 6.37468,4.56219 0.93746,1.49989 1.12494,1.4999 1.18744,1.4374 1.37493,1.3749 0.56247,0.56247 0.81246,0.68745 1.81241,1.56239 0.99995,0.81244 1.18745,0.93744 1.24993,0.93743 1.43743,1.06243 1.12495,-0.99993 1.12494,-0.87494 1.9999,-1.56239 0.81246,-0.87494 0.74996,-0.81245 0.68747,-0.87493 0.62497,-0.81245 0.99995,-1.74988 0.93745,-1.56239 0.87496,-1.81238 5.37473,-5.06215 7.43713,5.8121 -0.56247,-1.68738 -0.49998,-1.4999 -0.62497,-1.49989 -0.56247,-1.37491 -0.68746,-1.3749 -0.68747,-1.18742 -0.81246,-1.18742 -0.74996,-1.06243 -1.31244,-0.43747 -1.18744,-0.12499 -1.06244,0.18749 -0.93746,0.56246 1.43743,-8.6244 4.0623,-4.31221 6.18719,5.74961 1.24994,0 -0.62497,-1.68739 -0.62497,-1.49989 -0.68746,-1.4999 -0.68747,-1.31241 -0.81246,-1.37491 -0.74996,-1.18741 -0.81246,-1.18742 -0.81246,-0.99993 -0.68747,-0.43747 -0.56247,-0.31248 -0.56247,-0.18749 -0.43748,0.0625 -0.43748,0.0625 -0.37498,0.18749 -0.56247,0.81244 -2.99985,4.3747 -0.37498,-6.93702 2.81236,-2.24984 8.56207,5.24963 -0.74996,-1.62488 -0.68747,-1.4374 -0.81246,-1.37491 -0.81246,-1.24991 -0.93745,-1.24992 -0.87496,-1.12492 -0.99995,-1.06243 -0.93745,-0.87494 -0.99995,-0.24998 -0.99995,0 -0.99995,0.18749 -0.87496,0.37497 -2.99985,3.56226 -4.24979,-5.56212 0.43748,-1.62489 0.24999,-1.56239 0,-1.56239 -0.18749,-1.4999 -0.49998,-1.93736 -0.62497,-1.74988 -0.49997,-1.06243 -0.43748,-0.81244 0.37498,-1.43741 0.0625,-0.62495 0.12499,-0.49997 0,-0.62495 0,-0.31248 0.0625,-0.24999 -0.12499,-0.37497 -0.0625,-0.37497 -0.125,-0.49997 -0.0625,-0.24998 0,-0.18749 -1.9999,-1.81237 0.43748,1.56239 0,0.31248 0,0.37497 -0.0625,0.56246 0.0625,0.68745 -0.37499,0.125 -0.24998,0.49996 -0.43748,1.06243 -4.99975,-0.56246 -3.87481,0.56246 z m 8.87456,5.68711 0.37498,-0.0625 0.43748,0.18749 0.31248,0.24998 0.37498,0.43747 0.18749,0.43747 0.125,0.56246 -0.125,0.56246 -0.18749,0.74995 -0.68746,1.37491 -0.49998,1.49989 -0.24998,0.68745 -0.1875,0.56247 -0.12499,0.43747 -0.0625,0.37497 -0.12499,0.0625 -0.12499,-0.125 -0.0625,-0.12499 -0.18749,-0.24998 -0.125,-0.31248 -0.37498,-0.87494 -0.43747,-1.12492 -0.24999,-0.93744 -0.18749,-0.81244 0.0625,-0.68745 0.0625,-1.18742 0.18749,-0.49997 0.31249,-0.37497 0.68746,-0.68745 0.37498,-0.18749 0.49998,0.0625 z m -8.62457,0 0.18749,-0.18749 0.24999,-0.0625 0.49997,-0.0625 0.37498,0.0625 0.37498,0.31248 0.24999,0.37498 0.24999,0.56246 0.18749,0.68745 0.18749,0.93743 0,0.81245 0,0.87494 -0.0625,0.37497 0,0.43747 -0.12499,0.87494 -0.24999,0.68745 -0.24999,0.74995 -0.37498,0.68746 -0.37498,0.74994 -2.12489,-4.99965 -0.31249,-0.74995 -0.12499,-0.62496 0.0625,-1.06242 0.12499,-0.49997 0.31248,-0.37497 0.93746,-0.56246 z"
         style="fill:#000000;fill-opacity:1;fill-rule:evenodd;stroke:none"
         id="17"
         inkscape:connector-curvature="0" />
    </g>
  </g>
</svg>
